<svg
  width="345"
  height="402"
  viewBox="0 0 345 402"
  fill="none"
  xmlns="http://www.w3.org/2000/svg"
>
  <path
    d="M6.39542 54.1326L7.39467 49.1329L11.8951 51.6319L46.8945 280.445L47.8945 287.945L51.8945 316.445L43.3945 317.945L38.8944 288.945L37.8944 281.945L6.39542 54.1326Z"
    fill="#1B1B1A"
  />
  <path
    d="M0.894444 284.902C0.894444 284.902 26.2893 287.806 42.3945 284.902C58.2124 282.05 79.8945 270.902 79.8945 270.902L83.6786 281.447C83.6786 281.447 59.8696 289.577 43.8945 292.445C27.9623 295.306 1.98574 296.119 1.98574 296.119L0.894444 284.902Z"
    fill="#1B1B1A"
  />
  <ellipse
    cx="47.2683"
    cy="316.172"
    rx="8"
    ry="3"
    transform="rotate(-9.09843 47.2683 316.172)"
    fill="#1B1B1A"
  />
  <path
    d="M300.695 341.61C300.723 359.889 299.012 372.267 298.175 382.464C297.923 385.527 298.081 394.027 294.673 394.642C293.408 394.87 292.583 394.773 291.359 394.37C287.278 393.026 288.942 383.171 289.241 379.53C290.882 359.548 289.772 352.02 290.643 331.986C291.213 318.869 291.431 312.227 292.505 299.144C294.91 269.848 295.371 254.085 297.776 224.789C298.967 210.283 299.635 202.149 300.826 187.644C301.83 175.413 303.281 167.896 304.285 155.666C305.803 137.178 308.49 124.765 310.008 106.278C310.545 99.7359 309.028 97.953 311.204 91.7102C312.733 87.3251 314.228 85.3594 314.527 81.7191C315.306 72.2498 308.378 75.3471 308.327 65.8123C308.311 62.8303 311.01 61.6866 311.41 58.7332C311.885 55.2341 309.354 53.3075 309.642 49.7894C310.659 37.4068 307.575 44.4846 310.069 34.4255C311.4 29.0601 313.991 27.8139 314.4 22.3175C314.662 18.7972 314.584 17.8039 315.058 14.3048C315.458 11.3514 314.66 9.10824 315.716 6.29456C316.783 3.44808 321.797 9.14883 323.172 6.90674C323.783 5.91025 323.318 5.13118 323.411 3.99348C323.83 -1.10628 328.387 7.04174 329.979 5.26657C331.815 3.2183 337.045 0.466739 336.846 2.89686C335.949 13.82 335.71 16.7338 336.82 33.6901C337.115 38.2038 342.683 41.1204 340.065 44.955C338.409 47.3801 334.483 46.2322 333.078 48.7807C332.096 50.5646 333.113 51.9283 332.66 53.8789C331.502 58.8635 326.553 60.0745 325.075 64.9877C324.084 68.2836 323.854 70.3198 324.358 73.7275C325.072 78.5551 328.138 80.1688 327.603 84.9911C326.973 90.6644 321.02 86.8962 320.078 95.3716C319.543 100.194 323.562 103.722 322.435 107.297C321.941 108.863 319.394 109.013 318.523 114.308C316.859 124.432 315.201 144.623 313.87 160.831L313.868 160.853C313.051 170.808 311.764 176.32 310.947 186.275L307.538 227.789L305.266 255.465C303.351 278.788 300.99 291.834 301.191 315.256C301.277 325.318 300.679 331.549 300.695 341.61Z"
    fill="#1B1B1A"
  />
  <path
    d="M237.895 300.918C233.647 336.581 241.918 358.926 259.395 397.918H72.8945C72.8945 397.918 92.8583 344.368 95.3945 308.418C96.7699 288.922 93.2576 279.755 89.8945 265.418C83.4508 237.949 82.3945 207.418 83.8945 193.418C85.3945 179.418 87.2891 155.182 102.895 138.918C109.276 132.268 113.585 128.906 121.895 124.918C135.064 118.597 158.895 119.418 158.895 119.418C158.895 119.418 185.733 116.104 202.395 119.418C228.455 124.601 247.708 129.952 261.895 152.418C272.917 169.873 276.301 184.366 271.395 204.418C264.682 231.852 260.368 245.891 250.395 265.418C243.003 278.094 240.131 285.858 237.895 300.918Z"
    fill="#9B806B"
  />
  <path
    d="M249.347 205.312C254.906 189.221 241.96 154.09 233.052 147.313C224.144 140.535 203.803 142.522 196.552 144.418C187.545 146.773 190.322 147.739 177.346 147.313C164.37 146.887 137.893 133.567 127.552 141.417C116.352 149.92 105.351 166.895 103.347 180.813C101.98 190.301 103.669 205.987 109.052 213.918C130.445 245.439 149.975 247.587 166.847 249.812C173.827 250.733 177.818 251.214 184.847 250.812C202.668 249.794 211.679 248.65 225.552 237.418C236.754 228.349 244.64 218.936 249.347 205.312Z"
    fill="#E0BDAD"
  />
  <path
    d="M198.895 227.945C195.12 229.608 191.014 230.284 185.895 230.945"
    stroke="#5E5E5E"
    stroke-width="5"
    stroke-linecap="round"
  />
  <path
    d="M138.305 197.266C122.002 201.197 117.392 201.159 105.4 201.981C100.814 202.295 94.8303 200.635 92.8085 196.507C91.9625 194.78 91.8413 193.595 91.8727 191.673C91.9344 187.882 95.9595 182.866 95.9595 182.866C95.9595 182.866 117.989 165.416 134.002 167.022C138.276 167.451 139.774 167.872 143.633 169.76L143.729 169.807C149.286 172.525 154.189 174.924 154.873 181.08C155.24 184.379 155.597 186.165 154.047 189.1C151.401 194.108 143.857 195.927 138.342 197.257L138.305 197.266Z"
    fill="#4D4D4C"
  />
  <path
    d="M208.915 194.964C223.98 200.977 228.423 201.618 239.834 204.133C244.197 205.095 250.22 204.443 252.822 200.936C253.911 199.469 254.216 198.395 254.492 196.619C255.035 193.117 251.959 187.906 251.959 187.906C251.959 187.906 233.533 168.597 217.866 167.729C213.684 167.497 211.171 167.265 207.157 168.438L207.057 168.468C201.277 170.157 196.177 171.649 194.539 177.221C193.662 180.207 194.038 182.2 195.063 185.132C196.813 190.134 203.785 192.916 208.881 194.95L208.915 194.964Z"
    fill="#4D4D4C"
  />
  <ellipse
    cx="137.895"
    cy="184.946"
    rx="12"
    ry="7"
    transform="rotate(5.83868 137.895 184.946)"
    fill="#1B1B1A"
  />
  <path
    d="M203.895 221.945C205.325 223.073 206.204 224.137 206.616 225.279C207.108 226.644 206.93 228.12 206.228 229.945"
    stroke="#5E5E5E"
    stroke-width="4"
    stroke-linecap="round"
  />
  <ellipse
    cx="211.538"
    cy="182.102"
    rx="12.7839"
    ry="6.79858"
    transform="rotate(-10.2524 211.538 182.102)"
    fill="#1B1B1A"
  />
  <circle cx="133.895" cy="183.945" r="2" fill="#FCFCFC" />
  <circle
    cx="206.065"
    cy="182.156"
    r="2"
    transform="rotate(6.21764 206.065 182.156)"
    fill="#FCFCFC"
  />
  <path
    d="M192.906 187.882C198.711 191.526 198.303 200.717 197.906 205.882C197.509 211.047 191.11 220.934 180.61 221.434C170.11 221.934 172.11 221.434 165.11 219.434C161.617 217.892 158.456 215.817 154.61 212.933C150.61 209.933 149.61 205.934 150.11 200.434C150.974 190.931 159.133 186.549 163.133 186.548C167.133 186.548 166.133 186.548 172.633 186.548C176.967 186.548 180.1 184.158 183.609 184.434C187.238 184.718 187.101 184.239 192.906 187.882Z"
    fill="#1B1B1A"
  />
  <path
    d="M161.739 203.658C160.667 204.41 161.026 205.914 160.239 206.658C159.105 207.731 157.014 207.208 156.239 206.158C154.927 204.381 155.908 201.498 158.582 199.523C161.257 197.547 164.49 197.386 165.802 199.163C166.433 200.018 165.86 202.275 164.739 203.158C163.53 204.111 162.712 202.977 161.739 203.658Z"
    fill="#686867"
  />
  <path
    d="M184.395 118.945C183.754 113.862 184.207 110.834 186.895 104.945M179.395 119.945C175.083 117.048 172.179 113.093 169.895 104.945M153.895 106.445C157.021 112.851 166.895 120.445 173.895 121.945"
    stroke="#B7A496"
    stroke-width="6"
    stroke-linecap="round"
  />
  <path
    d="M193.395 328.945C193.235 338.079 194.407 342.977 197.895 351.445M202.895 358.945C202.362 363.607 203.639 367.849 207.395 376.945M217.895 357.445C218.811 362.309 220.73 364.446 226.395 367.445M224.395 369.945C226.092 381.666 228.425 387.441 233.895 396.945M209.895 327.445C211.63 334.307 212.225 338.153 212.895 344.945M207.395 390.445L209.895 399.945M239.895 382.445C241.915 389.554 244.032 393.344 249.395 399.945M238.895 366.445L251.895 385.445M220.895 327.445C220.248 334.542 220.988 337.715 222.895 342.945M233.895 335.445C234.61 343.842 235.631 348.158 238.895 354.945M232.395 303.445C232.198 315.178 233.087 320.043 235.395 327.445M177.395 359.945C175.556 363.456 175.062 365.573 174.895 371.945M184.395 389.445L188.395 399.945M174.895 390.445V399.945M159.895 371.945V383.945M145.395 369.945C144.511 377.963 141.562 381.65 135.395 387.945M114.395 376.945C113.745 385.168 111.036 389.201 104.395 395.945M94.8945 364.445L87.8945 385.445M96.3945 342.945L91.3945 357.445M106.395 328.945C106.183 340.434 104.152 345.535 98.8945 353.445M124.395 340.445L119.395 364.445M138.895 354.945L134.395 365.945M168.395 327.445C167.99 340.461 166.361 347.346 161.395 358.945M176.395 333.445V340.445M153.395 327.445C154.339 337.323 152.22 341.426 147.895 348.445M142.395 321.445C141.431 326.857 140.195 329.383 136.895 333.445M129.895 312.445C126.769 321.597 124.273 324.231 119.395 327.445M114.395 307.945V321.445M103.895 308.945L100.395 322.945M115.895 288.445C113.289 297.03 110.529 300.493 104.395 305.445M134.395 286.945C133.94 294.561 132.633 297.983 128.895 302.945M150.895 290.945C150.26 303.36 147.517 306.891 141.395 311.445M168.395 297.445C169.147 304.267 168.181 308.15 164.395 314.945M185.395 292.445L187.395 313.445M201.895 310.445C199.774 315.273 199.526 318.351 201.895 324.945M214.395 290.945L212.895 308.945M204.395 288.445L202.895 299.445M244.395 264.945C240.226 273.673 238.961 279.527 237.895 290.945M229.895 258.945C227.973 265.804 227.311 270.523 226.395 279.445M220.895 253.445C217.532 259.617 217.295 263.869 217.895 271.945M204.395 258.945L201.895 280.945M188.395 263.445V277.945M170.895 264.945V280.945M153.395 251.945C152.457 258.985 152.223 262.067 152.395 265.945M136.895 263.445V279.445M102.395 269.445C104.52 275.146 104.77 279.439 103.895 285.945M114.395 245.945C119.806 257.374 120.199 264.838 117.895 279.445M126.895 261.445C132.329 258.178 134.389 255.448 136.895 249.445M103.395 244.945C108.653 243.512 111.31 241.848 115.895 238.445M91.3945 228.445C91.9639 236.429 92.6828 241.066 94.8945 247.445M239.895 233.445C237.934 240.474 237.567 244.57 237.895 251.945M256.395 230.445C256.978 238.519 255.587 243.723 251.895 253.445M262.395 217.445C262.553 220.787 261.686 222.232 259.395 224.445M263.395 169.445C265.861 175.723 265.912 180.455 264.895 189.945M249.895 142.445C255.46 147.434 257.97 150.818 260.895 158.445M239.895 146.945C252.062 157.273 254.11 162.66 254.395 171.945M91.3945 177.445L90.3945 185.445M105.895 143.945L99.3945 159.445M122.395 129.945C116.355 134.036 114.374 136.45 112.895 140.945M157.895 132.945L155.395 140.945M182.395 137.445L183.395 142.945M202.895 127.445C210.444 132.704 213.825 135.66 217.895 140.945M209.895 125.445C218.707 127.25 223.307 129.473 230.895 135.445M188.395 120.445C188.912 124.086 188.616 126.928 187.395 132.945M175.395 122.445C170.424 125.928 169.081 128.926 168.395 135.445M164.395 122.445L159.895 127.445M155.395 125.445C148.275 126.215 144.709 128.006 138.895 132.945M181.395 103.945C181.642 108.308 181.159 110.988 179.895 115.945M175.395 114.445C172.342 113.821 170.827 112.39 168.395 108.445M168.395 115.945C164.093 116.603 161.832 114.575 157.895 109.445"
    stroke="#694C3E"
    stroke-width="3"
    stroke-linecap="round"
  />
  <path
    d="M203.895 390.445V398.945M248.895 384.945L261.395 395.945M216.895 373.445L223.395 392.945M229.395 359.945C230.645 366.266 231.922 368.932 235.395 371.945M241.395 356.445L251.895 363.945M210.395 351.445L215.395 365.945M194.395 359.945C194.272 368.105 195.904 372.659 201.395 380.945M174.395 378.445C174.043 384.662 172.921 387.111 169.895 390.445M131.895 371.945C130.581 376.855 128.904 379.74 124.895 384.945M108.895 377.445C106.249 385.769 103.248 389.67 96.3945 395.945M84.8945 390.445L73.8945 398.945M90.8945 366.945L80.8945 380.945M88.8945 360.945C85.2039 366.075 82.9033 367.274 78.3945 366.945M115.895 345.445C114.419 357.257 111.604 361.006 105.395 365.945M149.395 330.445C146.18 337.513 143.288 340.138 137.395 343.945M162.395 331.945C163.439 331.997 159.674 345.185 153.395 351.445M186.895 325.445V347.445M204.895 329.445L207.895 343.945M216.895 319.945V338.945M231.395 323.445L233.395 349.445M237.395 321.445L243.895 328.445M225.895 291.445L228.395 318.945M212.395 286.945L210.395 302.945M194.395 291.445C192.201 296.908 192.601 299.63 195.395 303.945M180.895 294.945V310.945M159.895 294.945C159.29 304.742 157.725 309.1 153.395 315.445M137.395 319.945C133.163 329.227 131.067 331.364 127.395 334.445M111.395 310.945C110.356 320.038 108.652 323.204 105.395 328.445M97.8945 331.945L94.3945 341.445M143.895 289.445C143.222 298.997 140.839 303.063 133.895 308.445M128.895 287.945L121.395 302.945M105.395 292.945C102.955 298.217 101.071 300.516 96.3945 302.945M100.895 287.945C97.9409 294.811 95.5261 296.619 90.8945 298.945M92.8945 252.445C92.0258 257.849 90.7144 259.766 87.3945 261.945M97.8945 252.445C100.318 259.128 100.451 263.163 97.8945 270.945M114.895 260.945C118.204 267.5 117.28 270.557 113.395 275.445M124.895 249.945C125.564 259.347 125.104 264.737 122.895 273.945M146.395 259.945V273.945M164.895 261.945L160.895 275.945M180.895 260.945L179.895 285.445M198.395 258.945L196.895 269.445M212.895 251.445L212.395 269.445M233.395 269.445V292.945M248.895 254.945L253.395 269.445M231.395 238.945V249.945M248.895 225.945C246.171 232.193 246.415 235.348 246.895 240.945M237.895 297.945L240.395 301.945M139.395 395.945L137.395 398.945M154.395 396.945L153.395 398.945M105.395 240.945L111.395 233.945M100.895 230.945L103.895 248.945M89.3945 191.945C85.895 196.153 83.8434 197.895 79.8945 198.945M95.8945 160.945V175.945M107.395 140.945C102.958 145.576 100.139 147.511 93.8945 148.445M141.395 123.945C134.28 126.119 132.097 129.042 130.395 136.445M147.395 127.945L143.895 133.445M184.895 120.445C180.343 124.164 179.888 126.972 180.395 132.445M196.895 120.445L201.895 134.945M210.395 130.445L224.895 135.945M235.895 150.945C242.735 154.755 244.298 156.948 245.395 160.945M248.895 145.945L260.395 158.945M240.395 133.445L253.395 134.945M212.895 120.445C218.01 120.55 220.399 119.556 223.895 116.445M201.895 118.445C199.461 117.651 198.92 116.311 198.395 113.445M131.895 121.945C126.783 122.653 124.121 122.369 120.395 118.445M150.895 118.445C144.937 119.514 142.042 118.864 137.895 114.945M160.895 116.445C154.067 116.111 150.946 114.339 146.395 108.945M268.895 165.445C271.138 169.248 272.974 169.654 276.395 169.945M271.895 180.445C275.464 182.868 276.821 184.525 278.395 187.945M269.895 200.945C271.487 207.687 272.606 209.569 274.895 210.445"
    stroke="#B69A89"
    stroke-width="2"
    stroke-linecap="round"
  />
</svg>
