<svg
  width="324"
  height="410"
  viewBox="0 0 324 410"
  fill="none"
  xmlns="http://www.w3.org/2000/svg"
>
  <path
    d="M276 199c-4.2 35.6 4 58 21.5 97H111s20-53.6 22.5-89.5c1.4-19.5-2.1-28.7-5.5-43-6.4-27.5-7.5-58-6-72s3.4-38.3 19-54.5c6.4-6.7 10.7-10 19-14 13.2-6.3 37-5.5 37-5.5s26.8-3.3 43.5 0c26 5.2 45.3 10.5 59.5 33 11 17.4 14.4 32 9.5 52-6.7 27.4-11 41.4-21 61A84.5 84.5 0 0 0 276 199Z"
    fill="#9B806B"
  />
  <path
    d="M287.5 103.4c5.5-16.1-7.4-51.3-16.3-58-9-6.8-29.3-4.8-36.5-3-9 2.4-6.3 3.4-19.2 3-13-.5-39.5-13.8-49.8-6A68.8 68.8 0 0 0 141.5 79c-1.4 9.5.3 25.1 5.7 33 21.4 31.6 40.9 33.7 57.8 36 7 .9 11 1.4 18 1 17.8-1 26.8-2.2 40.7-13.4 11.2-9.1 19-18.5 23.8-32.1Z"
    fill="#E0BDAD"
  />
  <path
    d="M237 126a46.5 46.5 0 0 1-13 3"
    stroke="#5E5E5E"
    stroke-width="5"
    stroke-linecap="round"
  />
  <path
    d="M176.4 95.3c-16.3 4-20.9 4-32.9 4.7-4.6.3-10.6-1.3-12.6-5.4-.8-1.8-1-3-1-4.9.1-3.8 4.2-8.8 4.2-8.8s22-17.4 38-15.8c4.3.4 5.8.8 9.6 2.7h.1c5.6 2.8 10.5 5.2 11.2 11.3.3 3.3.7 5.1-.8 8-2.7 5-10.2 6.9-15.8 8.2ZM247 93c15 6 19.5 6.7 31 9.2 4.3 1 10.3.3 13-3.2 1-1.5 1.3-2.5 1.6-4.3.5-3.5-2.5-8.7-2.5-8.7S271.6 66.7 256 65.8c-4.2-.2-6.7-.5-10.7.7h-.1c-5.8 1.7-11 3.2-12.6 8.8-.8 3-.5 5 .6 7.9 1.7 5 8.7 7.8 13.8 9.8Z"
    fill="#4D4D4C"
  />
  <ellipse
    cx="176"
    cy="83"
    rx="12"
    ry="7"
    transform="rotate(5.8 176 83)"
    fill="#1B1B1A"
  />
  <path
    d="M242 120a7.8 7.8 0 0 1 2.7 3.3c.5 1.4.3 2.9-.4 4.7"
    stroke="#5E5E5E"
    stroke-width="4"
    stroke-linecap="round"
  />
  <ellipse
    cx="249.6"
    cy="80.2"
    rx="12.8"
    ry="6.8"
    transform="rotate(-10.3 249.6 80.2)"
    fill="#1B1B1A"
  />
  <path d="M172 82a1 1 0 1 1-2 0 1 1 0 0 1 2 0Z" fill="#FBFBFB" />
  <circle cx="242" cy="81" r="1" fill="#FBFBFB" />
  <path
    d="M231 86c5.8 3.6 5.4 12.8 5 18-.4 5.1-6.8 15-17.3 15.5s-8.5 0-15.5-2a53.1 53.1 0 0 1-10.5-6.5c-4-3-5-7-4.5-12.5.9-9.5 9-13.9 13-13.9h9.5c4.4 0 7.5-2.4 11-2.1 3.6.3 3.5-.2 9.3 3.4Z"
    fill="#1B1B1A"
  />
  <path
    d="M199.8 101.7c-1 .8-.7 2.3-1.5 3-1 1-3.2.6-4-.5-1.3-1.8-.3-4.6 2.4-6.6 2.7-2 5.9-2.2 7.2-.4.6.9 0 3.1-1 4-1.3 1-2-.2-3 .5Z"
    fill="#686867"
  />
  <path
    d="M222.5 17A22 22 0 0 1 225 3m-7.5 15c-4.3-2.9-7.2-6.9-9.5-15m-16 1.5c3.1 6.4 13 14 20 15.5"
    stroke="#9B806B"
    stroke-width="6"
    stroke-linecap="round"
  />
  <path
    d="M231.5 227a48 48 0 0 0 4.5 22.5m5 7.5c-.5 4.7.7 8.9 4.5 18m10.5-19.5c1 4.9 2.8 7 8.5 10m-2 2.5c1.7 11.7 4 17.5 9.5 27m-24-69.5c1.7 6.9 2.3 10.7 3 17.5m-5.5 45.5 2.5 9.5m30-17.5c2 7.1 4.1 10.9 9.5 17.5M277 264.5l13 19m-31-58c-.6 7.1 0 10.3 2 15.5m11-7.5c.7 8.4 1.7 12.7 5 19.5m-6.5-51.5c-.2 11.7.7 16.6 3 24m-58 32.5c-1.8 3.5-2.3 5.6-2.5 12m9.5 17.5 4 10.5m-13.5-9.5v9.5m-15-28v12m-14.5-14c-.9 8-3.8 11.7-10 18m-21-11c-.6 8.2-3.4 12.3-10 19m-9.5-31.5-7 21m8.5-42.5-5 14.5m15-28.5a38.3 38.3 0 0 1-7.5 24.5m25.5-13-5 24M177 253l-4.5 11m34-38.5c-.4 13-2 19.9-7 31.5m15-25.5v7m-23-13c1 9.9-1.2 14-5.5 21m-5.5-27c-1 5.4-2.2 8-5.5 12m-7-21c-3.1 9.2-5.6 11.8-10.5 15m-5-19.5v13.5M142 207l-3.5 14m15.5-34.5c-2.6 8.6-5.4 12-11.5 17m30-18.5c-.5 7.6-1.8 11-5.5 16m22-12c-.6 12.4-3.4 16-9.5 20.5m27-14a25 25 0 0 1-4 17.5m21-22.5 2 21m14.5-3c-2.1 4.8-2.4 8 0 14.5m12.5-34-1.5 18m-8.5-20.5-1.5 11m41.5-34.5a66 66 0 0 0-6.5 26m-8-32c-2 6.9-2.6 11.6-3.5 20.5m-5.5-26c-3.4 6.2-3.6 10.4-3 18.5m-13.5-13-2.5 22m-13.5-17.5V176M209 163v16m-17.5-29c-1 7-1.2 10.1-1 14m-15.5-2.5v16m-34.5-10c2.1 5.7 2.4 10 1.5 16.5m10.5-40c5.4 11.4 5.8 18.9 3.5 33.5m9-18a21 21 0 0 0 10-12m-33.5-4.5c5.3-1.4 8-3.1 12.5-6.5m-24.5-10c.6 8 1.3 12.6 3.5 19m145-14c-2 7-2.3 11.1-2 18.5m18.5-21.5c.6 8-.8 13.3-4.5 23m10.5-36c.2 3.3-.7 4.8-3 7m4-55c2.5 6.3 2.5 11 1.5 20.5m-15-47.5c5.6 5 8 8.4 11 16M278 45c12.2 10.3 14.2 15.7 14.5 25m-163 5.5-1 8M144 42l-6.5 15.5m23-29.5c-6 4-8 6.5-9.5 11m45-8-2.5 8m27-3.5 1 5.5M241 25.5c7.6 5.3 11 8.2 15 13.5m-8-15.5c8.8 1.8 13.4 4 21 10m-42.5-15c.5 3.6.2 6.5-1 12.5m-12-10.5c-5 3.5-6.3 6.5-7 13m-4-13-4.5 5m-4.5-2A26 26 0 0 0 177 31m42.5-29c.2 4.4-.2 7-1.5 12m-4.5-1.5c-3-.6-4.6-2-7-6m0 7.5c-4.3.7-6.6-1.4-10.5-6.5"
    stroke="#694C3E"
    stroke-width="3"
    stroke-linecap="round"
  />
  <path
    d="M242 287.5v8.5m45-14 12.5 11M255 270.5l6.5 19.5m6-33c1.3 6.3 2.5 9 6 12m6-15.5L290 261m-41.5-12.5 5 14.5m-21-6c-.1 8.2 1.5 12.7 7 21m-27-2.5c-.4 6.2-1.5 8.7-4.5 12M170 269c-1.3 5-3 7.8-7 13m-16-7.5a36.7 36.7 0 0 1-12.5 18.5m-11.5-5.5-11 8.5m17-32-10 14m8-20c-3.7 5.1-6 6.3-10.5 6m37.5-21.5c-1.5 11.8-4.3 15.6-10.5 20.5m44-35.5c-3.2 7-6.1 9.7-12 13.5m25-12c1 0-2.7 13.2-9 19.5m33.5-26v22m18-18 3 14.5m9-24v19m14.5-15.5 2 26m4-28 6.5 7m-18-37 2.5 27.5m-16-32-2 16m-16-11.5c-2.2 5.5-1.8 8.2 1 12.5m-14.5-9v16m-21-16a34.2 34.2 0 0 1-6.5 20.5m-16 4.5c-4.2 9.3-6.3 11.4-10 14.5m-16-23.5c-1 9-2.7 12.3-6 17.5M136 229l-3.5 9.5m49.5-52c-.7 9.6-3 13.6-10 19m-5-20.5-7.5 15m-16-10c-2.4 5.3-4.3 7.6-9 10m4.5-15c-3 6.9-5.4 8.7-10 11m2-46.5c-.9 5.4-2.2 7.3-5.5 9.5m10.5-9.5a23.8 23.8 0 0 1 0 18.5m17-10c3.3 6.6 2.4 9.6-1.5 14.5M163 147c.7 9.4.2 14.8-2 24m23.5-14v14m18.5-12-4 14m20-15-1 24.5m18.5-26.5-1.5 10.5m16-18-.5 18m21 0V190m15.5-38 4.5 14.5m-22-30.5v11m17.5-24a25.2 25.2 0 0 0-2 15m-9 57 2.5 4m-101 94-2 3m17-2-1 2m-48-158 6-7m-10.5-3 3 18m-14.5-57c-3.5 4.2-5.6 6-9.5 7m16-38v15m11.5-35c-4.4 4.6-7.3 6.6-13.5 7.5M179.5 21c-7.1 2.2-9.3 5.1-11 12.5m17-8.5-3.5 5.5m41-13c-4.6 3.7-5 6.5-4.5 12m16.5-12 5 14.5m8.5-4.5L263 33m11 15c6.8 3.8 8.4 6 9.5 10m3.5-15 11.5 13m-20-25.5 13 1.5M251 17.5c5.1.1 7.5-.9 11-4m-22 2c-2.4-.8-3-2.1-3.5-5M170 19c-5.1.7-7.8.4-11.5-3.5m30.5 0c-6 1-8.9.4-13-3.5m23 1.5c-6.8-.3-10-2.1-14.5-7.5M307 62.5c2.2 3.8 4 4.2 7.5 4.5M310 77.5c3.6 2.4 5 4 6.5 7.5M308 98c1.6 6.7 2.7 8.6 5 9.5"
    stroke="#B69A89"
    stroke-width="2"
    stroke-linecap="round"
  />
  <g clip-path="url(#a)">
    <mask
      id="b"
      style="mask-type: alpha"
      maskUnits="userSpaceOnUse"
      x="37"
      y="88"
      width="303"
      height="259"
    >
      <path
        d="m228.4 179.3-60.2-36.9L149 256.1l60.3 36.7 19.1-113.5ZM167.3 142.2 103.1 156s-2.2.8-3.6 2.2c-1.8 1.9-2 4-2 4l-16.2 95.5s-.4 2.3 1 4.5a9.9 9.9 0 0 0 4.8 4.3c2.6 1.2 7.2 1.2 7.2 1.2l53.8-12 19.2-113.5ZM290.4 168.7c-3.5-1.5-6.9-.6-6.9-.6l-54.2 11.4-18.9 113.7 64.4-13.6s2-.7 3.1-1.6c1-.8 1-.6 2-2.1.8-1.3 1.2-3.9 1.2-3.9l15.7-94.3s.4-3-1.3-5.2c-1.7-2.2-3.2-3-5.1-3.8Z"
        fill="#fff"
      />
    </mask>
    <g mask="url(#b)">
      <path
        d="m74.2 53.4 262.1 83.3L243 431.2l-262.2-83.3L74.2 53.4Z"
        fill="#fff"
      />
      <path
        d="m28.6 356.7.2-.1 1.5.5.5-.3 1.4-1h.1l.9-1.5v-.1h1.4l2 .9.3-.2.7-.4.5-1 1.5-1.2.2-.6.3-.9.6-1.5.5-.2.3.5.2 1.2.6-.2.8.2.6.9.3.2 1.4-.7.8-.2.8.4 1 1.7h.2l1.7-1 2.5.6.4-.4-.3-1 .3-1.3.8-1.2 1.3-.4 1.4.1 1.3 1v.3l.3.7.4 3.2v2l-.4.4-.7.2-1.1.6-.6.8-.1.9.3.5h1l2.3.8.6.6h.5l-.5.3.3 1.2 1-.5.3-.7 1-.6.3.6-1 .4-.1.5.6.8.1.7h.3l1-1-.4-1 .6.2.6 1.7.7.1.5 1 1.6.5 1.5-.5.2-.5h.3v.2l1 1.4v.6l1 .9 2 .9h1.3l.6-.2.1-.4 1-.5 1.5-.2.5-.4h.8l.1-.5-.2-.4.2-.3 1.3-.1.6-.5 3-1.1.8-1.2.3-1.6 4.4-1 3-1.4 2.8-.7 3.5-.5 1.2-.2.5-.5.4.2 1.7-.2.4-.3 1.3.2 1.2-.9h.3l.2.3.7.5h1l.8.3 1.8.3.6-.7h.6l.2.7.6-.3 1.2.3.6.3 1.5.4h.5l.5.3 1.4 1.2h.7l.2.7.3.2v.5l1 .8.1.4 1.5.7.5.9.6-.1.4.6 1.4.3.8-.5 1.1.3.6-.2v-.3h-1v-.1l.6-1.4 1.4-.8.8.1v-1.5l.3.1.1-.3-.8-.3-.1.5-.6-.3v-.1h-.2l-.1-.4.6-.3-.1-.4.3-.2 1.6.7.3-.6 1-.2.1.2.3.3h.8l-.4-.8.6.2.6-.4h.7l-.2-.3-.2-.2.1-.3.7-.7.4.5.1.2-.2.7.7.2v.1l1 1.7-.3.4v.7l-2.2-.2-.4.6h-.9l.5.5.1.1.2 1.5-.3.3.3.1 1.5-.4 1.3-.5 2 .4.4-1.2.2-1.7 1.7-.3.6-.4v-1l-.4-1-1-.6-.2-.2.4-.6.8-.1.1-.5h1.3l.9.7.1.2.2.5.5-.2.7-1.2v-.4l1-1.1 1.7-.3.4-1 .6.5v1.3l-.5.6-.2 1h-.3l.2 1 .9 1 1-.7.1-1.2h.4l.4-.8-.1-.2-.2-.2.2-.7.8-.6h.1l1.1.2.1.2.3.4.4-.3.8.6.5-.7.6.2v.2h.1l-.1 1.6h-1.2l-.4.8.6.5 1-.3 1.5 1.2h.4v.2l.3.7.4-.2h.2l.3.2.5.3.3.4h.6v.1h.1l.9 1.4v1.3l.5.6.2 1.5-.4.7h-.4v.8l.5.3.1.1 1.5 2 .6 1.5v.4h-.6l-.8.7v.7l.4.3.2.2v.6l-.7.6-1-.3-1.5.8-1.4-.1-.2-.2-.4-.4-.2 1.5-.6.4-.6-.2h.2l-.3-.2.5-.1-.2-.5.3-.3-.4-.1-.2.4H154l.1-.5-1-.4h-.8l-.8-.4v-.1h-.2v-.5l1-1-.3-.3-.2.3h-.6v-.1h-.1l.3-.7-1.4-1-.3.5-1.1.1-.9-1-.1-.1-.2-.6-.5-.1-.5 1h-.6l-1.4.6v1.5l1 .6.3-.2v-.2l-.3-.3-.2-.2.2-.5.6-.3v.2h.1l.1.5.4.8-.8 1.8-.9.9v.8l.8 1.2.3.7h1.4v-1.3l-.2-.1-.1-.2.5-.5h.5l.4-.6 1.6.2.2-.4 1.7.2v.1h.1l-.2 1 .4.3.1.2-.1.4.8.8h.9v.2h.1l.6 1.6.7.4.1.1-.7 1.2-.7.6-1.5-1-.6.6.3.5.8.2v.2h.1l.3.4.8.5 1.7 1.3 2.5-.5.8.1v.1h.1l.3 1.4h1.5l2.7.8 1.6-1 1-.2.6-.4.4-1.7 1.4-.2 1.2.7.5-.6 1.5.9.1.1.3.9h.2l.4-.4.6-.9h1l.7.5v.1l.2.1.3 1.8.6.5.1.2.3.8.2.1h.8l1 1-.1.1.1.1v.6l1.5.5.1.1.6 1-.4 1.2.3.9 1 .5 1-.6.6.4v.2h.1l1 1.3 1.8 1 1.3-.3 1.7.7 1.5.1.1.2.4.5-.1 1 .2.2h.9l.9.3.8-.1.8-1v-1l.5-.9 1.2-.7h.1l.6-.2 2 .7v.1l.6.7 1.1.3.4-.2h.7l.4.2v2.2l.5.7v.2l.2 1 2.3 1.5v.2l.3.4 2.5 1.3 1.3 1.4.9.4h1.5l.8-1h1l.7-.6.8-.4v-.2l-1 .2-.6-.9-1.4-.3v-.1h-.1l.2-.4-.2-.3-.4.3v-.2h-.1v-.7h.3l.7-.9.8-.2-.4-.6-.2-.7-.4-.2v-.1l-.3-.5 1 .4v.1l.3.8.4.2h1.7l.1.2.3.3-.1.4 1 1.9 1.2.3.3-.8 1.3-.1v-.8l.3-1 1.7-.7 1.3-1.9 2.2-.8 1.4-.8 1-1 .6-1.8 1-1.2.1-.7-.7-1.2-.1-.2-.8-1.5.1-1.4.4-1 2.2-2.7.5-1.1V376l-.4-2 .3-1.7 1.4-2.2v-1.4l-.9-1v-.2l-.3-1.2 1.1-2.5v-1.2l-1-2.4-.4-2.3.2-1.1 1.7-2.1 4.3-2.8.3-2.4 1.4-3.1-.3-2.1.6-1.4v-.1l.2-.2.3-.7-.2-.5-.5-.6v-.1h-.1l-.4-1.2.6-1.4v-1l-1.1-3.2-.3-3.3-1.1-1.7-.1-.2.2-4v-.1l.1-3 .6-2.2-.4-1.2-2.1-1.7v-.2l-.5-1 .2-1 2.1-3.8.8-2 .3-1.7-.4-7 1-3.4-1.6-1.9-.1-.2-.3-2.1 1-1.8.4-2.3 1.3-2.3.2-1.6-1-3.4.1-3.2-1-.8-2-2.2v-.2s-.7-1.4-1.3-3.1l-2-4.7v-.2l-.3-1.2.7-1.5.2-1.7-.5-.7-2.2-.4-.8-1v-.1l-.1-.2.3-2.4-.8-.6-1.6-.2-1-1.4-.1-.2-1-2.7.4-2.4-.1-5.1-.8-4.2-1-3.2-.5-3-2.5-1.8-.4-.5.4-.3h.1l.8-.7.3.1.8 1.2h.4l.7-.1.4-.3h.2l.7.2 1 .3h.3l.6.1 1 .2h2l.7-.1 3.2-.5.6-.6 1.2-.5 1.3-.1h1.6l.5-.2 1.4-.2.4.2.9.6.8-.8.9-.6.4-.2h.6l.9-.7h.2l.5.3.3 1.2.5.4 1.3.3.8.2.8.5.6 1.1h.5l1-.6h1.6l2.6-1.2.5.1.2.8.6.5.2.7.4.7.7.3.2.1 1.3.5.7-1 .4.1.3.3.6.3 1.2-.2v.9l.7.5.6.5h1.8l.4-.1h.4l.7-.3.8-1.3.4-.3 2.3-.4.8.4.9.6 1 .2 1.4-.4 1.1-.6.5-.2.2-.2.4-.6 1.4-1.3h.7l.9-1 .6-.2.4-.4v-.4l-.6-.7-.2-.5.5-.3 1.3.2v-.8l.2-.3h.3l2 1 1 .5.3-.2v-.3l-.4-.4.1-.1.4-.5v-.8l.3.2.7.2 3.3 2.2 1 .6v.2l-.3.7.1 1.2-.2.6.3.7 4.6 1.2.1.2.4.6-60.4 190.4-8.4-2.7-167.5-53.2-32.6-10.4-.2-.5.5-.7.7-1.4Z"
        fill="#E0E0E0"
      />
      <path
        d="m133.4 276.3.3-.7-.5-.3.4-.5-.5-1-.5-.2v-1.2l2-.4.8-.6-.2-.4.6-.2-.4-1.6-.6-1.5h.4v-1.3h1.5l-.3-1.4-1.5-1.5 1.9-1.3.2-1.7-1-1-.7.5-.6-.6.3-1.7.6-1 1.4 1 .4-1 1.2-.7 1-.2.5-1.9v-.8l.2-1.1h0l-.3-.1-1-.9h0l-2.2-.6-.5.6-1.3-1-.3.4-.1.7.5.3-.1.4-.9.3-.4 1.3-1.6.2-.5-1.6-1.4.4v.2h-1.4l-1.8-.6v-1l-.8-1-1 .3-.1.7.5 1-.9.2v1.4l-.5-.1-.4.5-.6-.1-.3-1h-1.8l-.8.8-1.3-.5-.6.2-1-1h-.4l-1-1.2-.7.1-.7-.8-1-.1-.3.4-2.2.4v.5l.7.2-.1.3.8 1.4h-.7v-.2l-.4-.5-.7-.2.2-.2-.9-.4v.8h-.4l-.2-.3.2-.1-.3-.3.5-.9h-.3l-.3.4-1.6.5-.3-.9.4-.3.1-.3-1-.5-1.1-1.1v-.5l-1.2-.5-.2.2v1l-.5.3-.8 1.3v.8l.4.5-.8.3.1 1.2-.5.2-.6 1H100l-1.9 2.3-1.5 2.2H96l-.4 1 .7 1 .4-.5.3.1-.5 1.3.1.8 1.7.2 1.2.9v.3l-1 .8.5.4-.2.4-1.3-.3-.3.4.8 1.1-.9 1.7.4 2.1-.3.6h1.9v1.6l1.2.5v.5l-1.1.4h-.9l-.5 1.4 1.5 1.1.2.6 1.5 1-.4 1.1-1.5-.3.3.9-.8-.2.4.8-.2.2 2.3 2.1-.5 1-.3.6-.7.3.3.5h-.4l-.4.7 1.1.8-.4.3 1.2 1.2v-.5l.8-.6 1.5 1v1l1 .4v-.7l1 .2 1 1h.6l2.2-1.6.4-.7 2-1.2h0v-.3l1.1-.4 1-1 1.4.4.2-.7 1.7-1 .3-.8 1.4.4.6-.3-.6 1 .6 1.3 1 .6v-.1h.6l.9.7.2-.1.8-1.5h1.5l.2.7.5.1h0l1-.8 1-1.1.8-.2.3-.6-3.8-.7-.1-1.4.4-1-.3-1.5.6.6.3.5 1.6-.1.4-.5.8.3 1-.7v-.6l-.5-.6.1-.9 3.6.6.2-.1h.3l.3-.7.6.2.4-.3-.5-.2Z"
        fill="#CBCBCB"
        stroke="#fff"
        stroke-width=".8"
        stroke-miterlimit="22.9"
        stroke-linecap="round"
        stroke-linejoin="round"
      />
      <path
        d="M100.5 247.5h-.4v.2l-1.3.6-.1.3h-.6l.3-.5-.9-.4-.3.2-.4-.2-.8.3h-.2l.7-.6-.6-1.7.3-.4-1-.4v-.4l-.9-.4.2-.7.5-.5-.6-.6.2-.1-.3-.2h-.8l-.3-.4-.7-.2-.8.1-.3-.1.3-.1-.2-.6h-.6l-.3.5-1.5-.3-.2.1-1-.5-.4-.5.4-.4h-.6l-.2-.4-.3-1 .4-.6H87v-.7h-1l-.7-.5.4-.3-.9-.3-.5-2.2-.7-1.4.9.2v-.8l-1.7-.6.1-.4-2-1.4h0-.7l.2.5-.1.3-.5-.2-.5.5-1 .3v1.6l-.2.6-2-.8.1-1-2-.5-1.3-.6-1.2 1-1.4.6h-2.8l-.9.7-1.2 1.4-.7-.5-2.3.1.1-.6h-.9l-.3.4-.6-.2-.5-1.1-.3.5v.6l-.8.6-.7-.1-1.2.8-.6 1.7-1.7.1-.4-.2h0l.7.5H55l.2.3h-.1l-.9-.3-.3.6.2.2-.5.8.2.4 1.2.4 2.4 2.2h0l.2.2v1.8l2.8 1.5 1.8-1.9h.8l.1.2h.1l1 2 1.6 1.3h1.7l.1.3h0l.3.5.2.2h0l.8-.2.3-.6 2.8 1 .4-.5.3.2-.3 1 .8.2-.6.9.7.7.6-.5.8.3 1.8 2.1-.2 1.8h-1l-.2-1-1-.7-.3.6 1 .5-.2.3H74l-.2.5-.6.2-.2.7h1.2l1 .4.2.9.4.3-.1.7 2 .4-.4 2.3 1.6.7-.4.3.3 1.5-.6.5-2-.2-.3-.5h-.6l-.1.4-.5.2-.2.5-.7-.4.2-.5-1-.7-.1.6-1.2.3-.5 1.6 1.3.8v.5l-1.4.3-1.3-.5-.2.3-1.4-.8-.2-.8-1.4-1.6.5-.6.8.4.2-.6-.6-.7.4-.5-.9-.7H67l-1.1.6-.8 1.5-1.1.5-2.7 2.8-1.8.7-.8 2.9h-.5l.1 1.7-1.2 1.8h-.6l-.5 1-.5.3-1 2.8-1.4 1.8h0v.2l1 1v.8l1.3.8.3.9 3.3-.2-1.7-.7v-.6l-.7-1.1 1-1.7-1.7-1.6 1-.7 1.2 1 1.1-2.3.6.2.2-.3-.6-.6v-.8l.7-.4 1 .4 1.1-1.5 1.6 1 .8-2h.7v-.6l4 1.3 1-1.9 1.2.6.9-.7 1.1.3.1 2.1 1 2.4.4.1-.3 1.4.8.2.4-.6 2.5 1.7-.5.8 1 .3-.8.5 1.8 1.3-.6 1.6.8.6v.3l.8.5-.7 1.2 1.2.9v.3l-.9-.4-.7.3-.2.5.8 1 1.3.5.3-.7.7.7.4-.6 1.2.6 1 2.8h.5v-1.1l.6-1 1.2-.6.9.6 1-.1.2-.3-.8-.3.5-1 2.5-.2.1 1h.6l-.2.8 1.8 1 1 .2.4-1 1.5-.6.7-1.3 1.6-.2.6-.4.7.2.5-1-2.3-2 .2-.3-.4-.8.8.2-.3-1 1.5.4.4-1.1-1.5-1-.2-.6-1.5-1.1.5-1.4h.9l1-.4.1-.5-1.2-.5v-1.6h-1.9l.3-.6-.4-2 .9-1.8-.8-1.1.3-.4 1.3.3.2-.4-.5-.4 1-.8v-.3l-1.2-.9-1.7-.2v-.8l.4-1.3h-.3l-.4.4-.7-1 .4-1h.5l1.5-2.2 1.9-2.3h1.7l.6-1 .5-.2-.1-1.2.8-.3-.5-.5.1-.8.8-1.3.4-.4v-.9h0l-.1-.4h-.9l-.8-.7-.4.4-1.3-.4-.2.3Z"
        fill="#CBCBCB"
        stroke="#fff"
        stroke-width=".8"
        stroke-miterlimit="22.9"
        stroke-linecap="round"
        stroke-linejoin="round"
      />
      <path
        d="m104.5 248.1.6-.7 1 .3.5-.4-.7-2.7-1-.4.4-2.1 1.2-1.4-.5-.8.5-.6 2.4-.7 2.5.3v-.3l-1.1-1.2.4-1.5 1.3-.2 2 1 1.6-.7 1.2-2.2v-1.3l1.1-.9-.6-.7.9-1.2-1-3.2.9-.3-.8-1.3-2 .5-.8 1.1h-.5v-.8l-1-.8-1-.1.2-1.8 1.4-.5.1-.8-1-.6-2.4.7-.7-.8-2.6-.4-1.3-.9-.2-.3-1.6-.8-.9-.2-.1.6h-1.5l-.2-1-1.5 1.2.1.6-.4.7-.9-.5-.1.7-.8.1.1-.4H97l-.3.9-.1-.4-.8.5.4.1-.7.4.3.4-.5.7-.6-.2-.3.2H94l.4-.7-1.1-.4-1-1-.6-.2-.8.4-.4-.3-1.3.5-.4-.5-.3.6-.4.1-.2-.3.2-.4-.4-.2-.9.2v-1l.3-.6v.5l.4.3.5-.3-.1-.5h.4l.5-.7v.4h.3l.5-1.4-.2-.2h-.6v.7l-1-.5.2-.6-.4-.4-.3 1.1-1.8-.2-.2.9-.2.3-.7-.6-.3.4-1-.4-.8.3-1.3-.7-1 1.3-.2 1.1.6.3.4-.3.4.6-.3.8.2.2.5-.1-1.2 2.2-.1.5 1.3 1.6 1.4-.2-.5 1.8h.3l.3.7-.4 1.1h-.2l-.3-.4H81l-.1.4 2 1.4v.4l1.5.6v.8l-.8-.2.7 1.4.5 2.2 1 .3-.5.3.7.5h1v.8h.3l-.4.5.3 1 .2.4h.6l-.4.4.3.5 1.1.5.2-.1 1.5.3.3-.6.5.1.3.6-.3.1.3.1h1.5l.3.6.8-.1.3.2-.2.1.6.6-.5.5-.2.7 1 .4-.1.4 1 .4-.3.4.6 1.7-.7.5.2.1.8-.3.4.2.3-.2 1 .4-.4.5h.6l.1-.3 1.2-.6v-.2h.5l.2-.3 1.3.4.4-.4.8.6.9.1.1.5.3-.3Z"
        fill="#CBCBCB"
        stroke="#fff"
        stroke-width=".8"
      />
      <path
        d="m87.5 220-.3-.3-.1-.5-.3.5v1.1l.9-.2.4.2-.2.4.2.3.4-.1.3-.6.4.5 1.3-.5.4.3.8-.4.5.2 1 1 1.2.4-.4.7h.4l.3-.2.6.2.5-.7-.3-.4.7-.4-.4-.1.8-.5v.4l.4-.8h.7l-.1.3h.8l.1-.8.9.5.4-.7-.1-.6 1.5-1.2.2 1h1.5l.1-.6.9.2 1.6.8.2.3 1.3.9 2.6.4.6-.4.3-1-1.4-1.6.4-.8-.6-.8 1.3-.9H109v-1l-2.8-.5.1-.4-1-.6-1.2 1.3-2.1-1.8-1-1.4.8-1.3 1-.2-.7-.8 2.5-1.8-.6-.4.3-1 1.2-.2v-.1l-.8-.3.3-.7 2-.6.5.3v-.9h.3l.7 1 .9-.7.1-1.3 1 .5 1.4-1.3v-.3l-1.4-.8v-.5l.9-.1v-1.3l-.7-.3-.3.5h-.8v-2l-.8-.3-1.2 1.4-2 .2-2.1-1-.5 1-1.4.2-2-.2-.7.4.9 1-.7.8-2-1.3-1 .4-.8-3.6.7-.5-1.2-2.4-1.7.7-.7-1.2.6-1-4.8-2.3.2-.6h.8l1.9-3h1.2l.4-1-.8-.3.3-.5.8-.4-.3-.5h-1v.8l-.3.3-1.3-1.8v-1l-2.3.5-2.7-1.4-2.6.3V179l-2.3-.1.2-.9-1.7-1.8h-1.3l.2.7-1 1-1.2-.6-.6-1h-1.1l.3-.9-.4-.7-1-.5-.1 2.1-.3.3-.2-.2-.4-.6h-1v.2l-.9.2v-.3h-.1v-.4l-.8-.2-.6 1-2 .2-.1-.2h-.1l-.1-.6h-1.4v1.1l-.9.3-.2 1-2.1-.1-.3 1.3-1.2-.5-1.5 1 .1.2.2.2-.2.9-1.3-.5-1.5 2.3-.9-.4-.8.7.4.4.2.3-1.8 1.1.6 1.3 1.3.6v.2h.2v.6h-1.4l-1.4.8.1 1.2-.4.4-.4 1.3-.7 1.3 1.6 1.1v.1l.2.2-.4.9h-1.5l-1 2.4.5 1 1 .6v.1l.2.1-.1.4-1 .4v.9l-.7.7 1.3.6-.1.1-1.5 1.4.3 1-.6.3h-.2l-1.9 1.3v.3l2.1-1.3 1.8 1 .6-.7.8.3-.2 1 .9.4.8-.5-.2 1.6h1l2 .9-.5-1 2 .2 1.4-.4.3-.5h2l1-.1.4-1 1.8.4.7-1 2.8 1.7-.5 3.2.4-.1 1.4-.9-.2-1.2h1l.2-1.1.4-.4.3.4.1 1.3.2.6-.1.5 1.1.6v.5l.8.3.5-.3v1.2l1-.2 1 1.5 1.4.6.4-1.2.7-.3.2-.5 1.4.5.2 1.4-1.2 2 2.1 1.7v-.1l1.4.7.9-.3.9.4.3-.4.7.6.2-.3.2-.9 1.8.2.3-1.1.4.4-.2.6 1 .5v-.6l.6-.1.2.2-.5 1.4h-.3v-.4l-.5.8-.4-.1v.5l-.4.3Z"
        fill="#CBCBCB"
        stroke="#fff"
        stroke-width=".8"
      />
      <path
        d="m118 226.2.6-.2.6-1 .8.3 1-.6.6.5 1.4-.4.7.5.4 1-.2.3.6 1 1.3-1.8 1.8-.8.5.8-.5.5-.2.8 1.5.5.7-.1 1.2 1.2 2-.2v-.2l.2-.4 1.5.1v-.5l.7-.3 1 .3.3-.2 2 .5v-2.1l.6-.8.9-.3.2-1.3.7-.5-.2-.8-.6-2.1h-.7l-1.8-.8-.4-1.7.9-1-.8-2.4-1.3-1-.3.2-1.5-.4-1-.8-.3-.8.1-.2 1 1 .7-.7-.2-.7 1.3-.7.6.7.8-.2 1 .4.5-1.2 1.2-.4v-.3l-2.1-.6-.5-1.8-1.7-.9-.1-.4.3-.6 2.4-1.4 1.6.2.1-.4-1-.5-1-2-1.6-1 .4-.8-.2-.6-.9-.5.2-.6.2-.6-.9-.4-.3-.5h-.3l-.1-.7-.7.4-.5-.7.7-.8-.8-2h-1l-.7-.7-1.5-.3-.2-.7-.8.3-.7-.4-.2.2v.7l-.8.3v.3l-.7-.4.1.6h-1.1l-1.5-.4-.8.7v-.8l-.8-.6-1.3-.3v.5l-1-.1v.1l1.2.8-.1.4-1.3.3.2.6-.7.7.5 2.2-.2.4-2.8-.9-.9.8-1-.1-.7-.3-.9.3v.2l.8.4-1.4 1.4 1.6 1-.9-.2-.4.4-.9-1h-1v1.5h-.8v.6l1.3.8.1.3-1.4 1.3-1-.5-.1 1.3-.9.7-.7-1h-.3v.9l-.5-.3-2 .6-.3.7.8.3v.1l-1.2.2-.3 1 .6.4-2.5 1.8.8.8-1.1.2-.7 1.3.9 1.4 2.1 1.8 1.2-1.3 1 .6-.1.4 2.8.6v.8l1.3.1-1.3 1 .6.7-.4.8 1.4 1.7-.3.9-.6.4.7.8 2.4-.7 1 .6-.1.8-1.4.5-.2 1.8 1 .1 1 .8v.8h.5l.8-1.1 2-.5.8 1.3Z"
        fill="#CBCBCB"
        stroke="#fff"
        stroke-width=".8"
      />
      <path
        d="m112.2 198 1 1.1.3-.4 1 .2-1.7-1 1.4-1.4-.9-.4.1-.2.9-.3.8.3h.9l1-.7 2.7.9.2-.4-.5-2.2.7-.7-.2-.6 1.3-.3.1-.4-1.2-.8v-.1h1v-.4l1.3.3.7.6.1.8.8-.7 1.5.4h1.1v-.6l.6.4v-.3l.9-.3v-.7l.1-.2.7.4.8-.3v-1h.5l.4-1-.5-.3.3-.3-1.6-1.2-1.1.4.2-1 .9-.4v-.9l-.6-.1-.2-1.3-1.2-.2-.6.5.5.4-.2.6-.8-.7-1.7.5.2.3-.2.2h-1.5l.4-1.6 1.6.2 1.2-1-1.3-1.5.1-1h-.5l-.3 1.3-1-.1-.9-.6h-.7l-.1 1.2-.6-.4v-.5l.7-1.1-.6-.3v.3l.1.2-.3.4-.9-.6v-1.8l.4-.8-1.2-1 .3-1.1V173l-1.3-1.4-2-.2-.1-2 1-1 .8-.1v-.4l-2.2-.3.6-2 .7-.3-.5-.5-.5.2-.8-1.2-1.9-1.2-.7-1 .4-1.2.5-.3-.2-.3-.7.2V159l-1.7-.6.3-.7h.3l.2-1.3h1.2l-.8-.8 1-.8-.9-.9 2-2-.7-.8.6-1.6-1.3-1-1 .3-.4-.7-.6.4-1-.3-.2-.9-.8-.3-.6 1.6h-1l-1.4-1-.5-1.9h-2.3l-2.7-.7 1-1.3-2.4-1.9-3-1.4-.2.3-.2.9.1.8-1.1.9v1h-1v.6h.8v.3h.2v1.5l-1 1-.9.1-1.1-.3-.9.7.5 1.8-1 1.4-1.3.4v1.8l.6.9h.5l.7-1v.3l.1-.1.2 1.1-.2 1-1.4-.1.6 1.1-1.8 3h-.7l-.1.5h.7v.2h.2L87 162h-2.5l-1.2 1-.8-.3-.3.8h-1.1l-.9 1.3H80l-.2-.2-.5-.8-2.7 1-1.4 1.6 1.6 1.8.2.3-.3.5h.7v.3h.2v2l-1.1-.3-.4.6-1.8-.7-.1 1.3.4.7.1.3H73l-.8.6.2.2h.2-.2v.1l.2.1 1 .5.4.7-.3.8h1.1l.6 1.1 1.2.5 1-.9-.2-.6h1.3l1.7 1.7-.2.9 2.3.1v1.2l2.6-.3 2.7 1.4 2.3-.5v1l1.3 1.8.4-.3v-.8h1l.2.5-.8.4-.3.5.8.4-.4 1-1.2-.1-1.9 3h-.8l-.2.6 4.8 2.3-.6 1 .7 1.2 1.7-.7 1.2 2.4-.7.5.7 3.6 1.2-.4L99 200l.7-.7-1-1.1.7-.4 2.1.2 1.4-.1.5-1.1 2.1 1 2-.2 1.2-1.4.7.3.1 2h.8l.3-.5.6.3v-.1l1-.2Z"
        fill="#CBCBCB"
        stroke="#fff"
        stroke-width=".8"
      />
      <path
        d="m144 159.7.3-.5-.4-1 1-1.5-1.4-1-1 .8-3 .3-1.2-1-3.3-.4-.2-1.2-1-1 .8-1h.9l.8-1.3-2-2-2.7-1.2-.4 1.8-2.1-.7-.6.6-2-1.7-.7.3-.6 1.5-3-.7-.3-1-.3.6h-1.4l-.6-1.8h-.8l-.5 1.2-.8.4-1.6-1-1.5 1.3v1.1l-.8-.1h-.1l-.6 1.6.7.9-2 1.9.9 1-1 .7.8.9h-1.2l-.2 1.2h-.3l-.3.7 1.6.6.1 1.1.7-.3.2.4-.5.3-.4 1.2.7 1 1.9 1.2.8 1.2.5-.2.5.5-.7.4-.6 1.9 2.1.3.1.4-.9.1-1 1 .2 2 2 .2 1.2 1.4v1.6l-.2 1.1 1.2 1-.4.8v1.8l.9.6.3-.4-.2-.2.1-.3.6.3-.7 1.1v.5l.6.4v-1.1h.8l.8.5 1.1.1.3-1.3h.5l-.1 1 1.3 1.5-1.2 1-1.6-.2-.4 1.6h1.5l.2-.2-.2-.3 1.7-.5.8.7.2-.6-.5-.4.6-.5 1.2.2.2 1.3.6.1v.9l-1 .5-.1 1 1-.5.9-.5.7.2v-1l.7-1 .6.2 1-.6.4 1-1.1 1-.1 1.2.6.5 1.7.2-.2.9.8.6.1.7.6-.4.1-1.6-.4-.6 1.5-1.4.2.9.4.3.5-1.3-1-1 1-.7 1.5 1.2h1.6l1-.8.5-.6h2.3l.1-.4-1.7-1.1.5-.5-.4-1.6-1.5-.7H140l-1-3.1-.8-.8 1-.4 1.2.2 1.6-1.7-.6-1.8.5-.4v-2.2l-.9-.3.6-.8-1.7-.2-.8-1.5-2.6-1.4.4-1h3.3l1.7-3 .6.1-.2-.8 1.7-.5Z"
        fill="#CBCBCB"
        stroke="#fff"
        stroke-width=".8"
      />
      <path
        d="M94.8 141.3Zm61.9-14.5 1.4-.3-1-.7h.3l-.3-.2.7-.3-.6-1.9.7-1.7 2.2-1.8h1.1v.3h.2l-.6 3 1.7.5.5-1.2.7-.2-.8-.6-.6-.8-.1-.3 2.7.2.6.5 2.5.1-1.6-.7v-.2h-.1v-.9l1.2-.8.3-1-2.6-.8-1.2-1.7-1.6.8-1.8-3.1-1-.2-1.1 1.4-1.5.2-.5-.8-.1-.2v-.8l-.2-.9-1.6-.5-1.1.5v1.2l-.5.7h-1.2l-.2-.3-.4-.6h-.8l-1.3 1.9h-.9v-.3h-.1v-1l1-.7.9-1.8-1.2-1-.2.8-4.7-3.3-.8 1 .3.4.2.3-.7 1 .3 1.7-.6 2.2.5.3-.1.1.3.2-1.3.7.5 1.9-1 1.4-1.7.3-1.5-1.1v-.2l-.2-.1.7-2.5-1.4-.7v-.2h-.1v-.5l-.6-.4-1.4 2.4-.7.1-.4 1.5-.8-.2-.1-.3-.7-1.3.3-1.5-1.1-1.7-.9-.4v-.2l-.1-.1v-.8h-.4l-.1 1.1-3 1-1.5 2.3.4.2v.2l.2.1v1.5l-1.4 2h-1.8l-2.5 3.4 1.6 2 .1.2-1.2 1.8 2 3 .2.3h-4v-.3h-.2l.2-2.3-.2-1.4-1.2-1.4-1.2-.3.1 3-1.9-.5-.1 1.8-1.1 1 .4 1.7-1 1.2.3 1.9-1.3.8-2-.1-1.4-1-3.5-1v-.2h-.2v-2.2l-1.3-1v-.2l-.2-.1-.3-1.5 1.8-.5-1.1-1.5-.2-.3.1-.6h-1.6l-.8.9.6.7.1.3-.6 1.4-2.3-.7-.8.7 1 1.5.1.3-2.6 2.7 1.2 1 .1.2v1.3l-3.1.3-2.5 3 .5.2-.5.1.7.2-1.8.4-.1.5.8.9h1.4l1 .7h.1v.2h.1l.2-.8.2-.3 3 1.4 2.4 1.9-1 1.3 2.7.7h2.3l.5 2 1.4 1h1l.6-1.7.8.3.3 1 .9.2.6-.4.4.7 1-.4 1.3 1.1.9.1v-1.2l1.5-1.2 1.6 1 .8-.4.5-1.2h.8l.6 1.8h1.4l.3-.6.2 1 3 .7.7-1.5.7-.3 2 1.7.6-.6 2.1.7.4-1.8 2.6 1.3 1.6-1 3.8-.3 2 2 1-1.5-.2-2 .5-.9 1.8-.4.1-1.5-1-2-1.2-.6v-2l1.5-.3 3.5-4.7v-2h-1.7l-.6-1 .7-1.5-1-.6 1.5-1.9 1 .8.6-.6 1.2.8h4.3l.2-.6 2.7-.1.4-.3h-.2Z"
        fill="#CBCBCB"
        stroke="#fff"
        stroke-width=".8"
      />
      <path
        d="m135.5 152.3.8-1.4-2-2 1.5-1 3.8-.2 2 2 1-1.5-.2-2 .5-.9 1.8-.4.1-1.5-1-2-1.2-.6v-2l1.5-.3 3.5-4.7v-2h-1.7l-.6-1 .7-1.5-1-.6 1.6-1.9 1 .8.5-.6 1.3.8h4.2l.2-.6 2.7-.1-.5.4.4 1.4h0l.1.3 2 1 1.5-1.2.9 1 .8 1 2.4-.4h.3l-.2.3.2.2h0l1.1 2.2.7.1-.2 1-1.4.9.2.2h0l1 1.3-.2 1.5h.2v.3l.6.2-.4.7.2.2v.1l4.3 2.7h2.2l3.1 1.7 1-.4.1.2-.5 1.8h.2v.3h-.1l.3.7-.3.5.6.4-.2.3-2.2.3-1.5 1-.1 1h.1v.3l1.2.8 1-1.6 1.1.5h.1v.3l.4 1.5-1.4 1 .6 1.5 1.3.8-.7.4.3.6.4-.3.3.8 1.2.6-2.5 2.5 1.3 2.8-.5.7 1 1 .8-.3.3-.9 1 1.2-1.3 1.8 1 1.3.8-.3 1.6 1.3-.7 2-.9.1-1.6 1-.3 1.3-.9.3-.9-.4-.7.5-.5-.3-2.9 1.2-1-.8v1.1l-1.4 1 .2 1.4h0l-.3.6h-1.1l-.6.6-1.7-.8-1.7-.2-.3.6-2.6-1.2.2-1.3 1.6.4.5-.5-.3-.7-.7.3-.9-.8.6-1.6v-2l-1 .2-1.5-.9h-.6l-.8 1-1.2.5-.1-.5-1.3.7-.3.5-.7-.3-.5-1.1.2-3-1.4-.3.1-2-1.1-1.6 1.1-2-.4-1.2-1.2-.7-2.4 1.8-1.6-.2-1.7-.8-2 .4-1.2-1.2h0l.3-.5-.4-1 1-1.5-1.4-1-1 .9-3 .2-1.2-1-3.3-.4-.2-1.2-1-1 .8-1h.9Z"
        fill="#BB9EA0"
        stroke="#fff"
        stroke-width=".8"
        stroke-miterlimit="22.9"
        stroke-linecap="round"
        stroke-linejoin="round"
      />
      <path
        d="m168 187.7-5-1.4.4-1-.3-.5-3.4-.9-1 1.6-3.8-.5-1 1.5-1.2-.3-.4.7-1.6-.4-.4.6.5.5-.3.4-1.6.2v.5l-.6.3-.3 1.7-1.7-.3-.6.3.7.6.5-.2 2.2 1.7-.2.3 3 .5.4-.4.8.1.5 1.3 1.2.2-.4.6.1.8 1.3.3 1-.7.2-1 2-1.2-1.6-2.6v-.7l2.5-.1.7-1.5 2.7 1 1.7-1.3 2-.6h1v-.1Z"
        fill="#CBCBCB"
        stroke="#fff"
        stroke-width=".8"
      />
      <path
        d="m184 193.6-4 1-.5-1-.9-.6.7-1.4.6-.7-5-3v-1.7l-.6-.2-1-1.7-1-.5v-1.1h1v-.8l.6-.7-1.8.7-.4-.4.8-.3-1.7-2.5 1-.6.4.3 1-1-.2-.5-2 .2-.4.5h-1.1l-.6.6-1.7-.8-1.7-.2-.3.6-2.6-1.2.2-1.3 1.6.4.5-.5-.3-.7-.7.3-.9-.8.6-1.6v-2l-1 .2-1.5-.9h-.6l-.8 1-1.2.5-.1-.5-1.3.7-.3.5-.7-.3-.5-1 .2-3-1.4-.4.1-2-1.1-1.6 1.1-2-.4-1.2-1.2-.7-2.4 1.8-1.6-.2-1.7-.8-2 .4-1.2-1.2-1.8.5.3.8h-.6l-1.7 3-3.3-.2-.4 1 2.6 1.5.8 1.5 1.7.2-.6.8.9.3v2.3l-.5.3.6 1.8-1.6 1.7-1.3-.2-.9.4.8.8 1 3.2 1.6-.1 1.5.7.4 1.6-.5.5 1.7 1.1v.4h-2.4l-.6.6-1 .8h-1.5l-1.5-1.2-1 .7 1 1-.5 1.3-.4-.3-.2-.9-1.5 1.4.4.6-.1 1.6-.6.4v-.7l-1-.6.3-1-1.7-.1-.6-.5v-1.2l1.2-1-.4-1-1 .7-.6-.3-.7 1v1l-.7-.2-1 .4.1.1 1.7 1.2-.3.3.5.3-.4 1h-.6v1h.1l.2.7 1.5.3.7.8h1l.8 1.9-.7.8.5.7.7-.4.1.6h.7l.1-1 .4-.4 1.7 1 .2.8h-.6l.5.4-.1.2-1.4-.6v.6l-.2.6 1.5.6.4-.4 1.4 1 .3-.4 1 .3.2.8.6-.1 2.2 1.4.7-.1.2-1h.4l.2 1.1h1.4l-.3.7h-.7v.1l.3.4.5.2 1.3 1.3.7-.8 1-.2.2.6 2.4.4 1.5-.9-.1-1.2h1.7l.3.5h1l1-.6 1.9.6-.8 1.1 3 1.8-.1 1-.5 1.2 2.5 1-.1-.5 1 .2-.4.5.4.5 2.2-.2.3-1.2 1.9.2-.3.8h.8l.1-.3.9.6.5-.3.5.2v.5l.5-.2 3 .3-.2.5.7.6h.3l.3-1.3-.3-.2.3-1.2.3-.8h1l-.5-.9h.5l-1.6-.9 1.4-3.8 1-.2.9-1.2.7.5v.5l1.4.3 1.1.4v-.6l.2-1-.5-.2.4-1-.3-.3 1.2-1 .5 1 .5-.6.3-3.5Zm-38.3-2.9.6-.3 1.7.3.3-1.7.6-.3v-.5l1.6-.2.3-.4-.5-.5.4-.6 1.6.4.4-.7 1.2.3 1-1.5 3.8.5 1-1.6 3.4.9.3.5-.3 1 4.9 1.4v.1h-1l-2 .6-1.7 1.3-2.7-1-.7 1.5-2.4.1v.7l1.5 2.6-2 1.1-.2 1.1-1 .7-1.3-.3v-.8l.3-.6-1.2-.2-.5-1.3h-.8l-.3.3-3.1-.5.2-.3-2.2-1.7-.5.2-.7-.6Z"
        fill="#CBCBCB"
        stroke="#fff"
        stroke-width=".8"
      />
      <path
        d="M211 174.6h0l1.8.5v.7l1.3.4.3-.7 1.8 1.4h0V174l.6-.8h1.1l2.7.8 1.1-.5.2-.9-1-1h0v-1.2l2.2-1.6 3.7-5.3 1-1.3-.4-1.9.6-1-1.2-.4v-.2h-.1l-.3-.8-2.2-.4-1 1.2H222l-3.4 2.2-1 1.3-2.1.8-1.3-.4-1.3 2 .8 1.2 1.2.8.3 1.6-1.2.1-1.5 1.4-1.3-.4.3 1.7-.8.6-.4 1.4.5.7.1.8Z"
        fill="#BB9EA0"
        stroke="#fff"
        stroke-width=".8"
        stroke-miterlimit="22.9"
        stroke-linecap="round"
        stroke-linejoin="round"
      />
      <path
        d="m195.3 167.8-1.2 3 1 .7-.2 1.4.8.3-.7 1 2 1.3 1 .1-.6.7v1.2l1.5.8h2.6l.3 1 1 .2v-1l1.4-.4-.1 2h1v-.5l2-.3-.4-1.4-2.3-1.8v-.5l.8-.2 1-2 1.3 1.3h.8l2 .1.6-.2v-.8l-.6-.7-.8-.6-1.2.3-.7-2.6-1.5.3-4.2-2.4-.5-1h-2.2v-.8l.4-.7h-1.8l.3.6-1 1.4-1.8.2Z"
        fill="#BB9EA0"
        stroke="#fff"
        stroke-width=".8"
        stroke-miterlimit="22.9"
        stroke-linecap="round"
        stroke-linejoin="round"
      />
      <path
        d="m214 162.9-1.1 1.8.8 1.2 1.2.8.3 1.6-1.2.1-1.5 1.4-1.3-.4.3 1.7-.8.6-.4 1.4-.8-.6-1.2.3-.7-2.6-1.5.3-4.2-2.4-.5-1h-2.2v-.8l.4-.7h-1.8l.3.6-1 1.4-1.8.2-1.2 3 1 .7-.2 1.4.8.3-.8 1 2 1.3 1.1.1-.6.7v1.1l1.5.9h2.6l.2 1 1 .2v-1l1.5-.4-.1 2h1v-.5l2-.3-.4-1.4-2.3-1.8v-.5l.8-.2 1-2 1.3 1.3h.7l2 .1.7-.2h0l1.9.5v.7l1.3.4.3-.7 1.8 1.4-.2 1h.1v.2l1.6 2.2-.1 1-.8.1-.8-.9-.2-.7h0v-.3l-.7-.5-.4 1.8v2.2l.5 1.4h0l.1.2 1.4 2.3-.3 1-.6.7H214l-1.1.7-.3 1v.1l.1.2h0l-2.9.7-.7 1h-1.3l-.2-.9-2.4.3.2.8-4 .5-.8-.5-1.5.4v-.6l-2.3.6-2.2-.4-1.2-1.7-1 .9h-1.1l-1.6 2.1-3-.3-1.3-.6-1.4.7h0l-4 1-.5-1-.9-.6.6-1.4.7-.7-5-3v-1.7l-.6-.2-1-1.7-1-.5v-1.1h1v-.8l.6-.7-1.8.7-.4-.4.8-.3-1.7-2.5 1-.6.4.3 1-1-.2-.5-2 .2h0-.1l-.2-1.5 1.5-1-.1-1.1 1 .8 3-1.2.4.3.7-.5 1 .4.8-.3.3-1.3 1.6-1h1l.6-2.1-1.6-1.3-.8.3-1-1.3 1.2-1.8-1-1.2-.2.9-.7.4-1.1-1.1.5-.7-1.3-2.8 2.5-2.5-1.2-.6-.3-.8-.4.3-.3-.6.7-.4-1.3-.9-.6-1.5 1.4-.9-.3-1.5 1.4-.4.5 1.1.2 2.8h.1v.3l2.3.4 2-.1.2-.3h.2l.1 1h.1v.2h1.6l-.5.8v1.4h0v.3h.7l.1 1.7-1.7 1 .2.7h0l.1.3 1.3.5-.1 1h.1v.3l1 .7.6-.6v2.7l.1.1v.1l.9 1 .3 1.5.1.2h0l.6 1 .7-.1.7-.7h.9l.1 1.3h0l.1.3 1.3-.6.6-1.4-.2-.3h0l-.5-1-1-.2-.3-.9 1.3-3 .8-.3.2-.6-.2-.2h0l-.4-.9-1.3-1.6-1 .7v1.4l-1-.5-.6-1v-.6l-.1-.2h0l-.6-.7 1-2h1l2.9 1.5.2 1.2h0v.2l1.9-1 .5-2.5h.7l.6.9v.8h.1v.3l1.7-.2.5.5 2-.2.5.6h1l-.2-.3h0l-.2-.3 1-.4h1.2l.5-1.5 1.4-.3 1.7-3.8h-.2l.1-.3-.7-.3.2-1 .5-.4.7.4.4-.3-.5-1.9h1.2l1.4 1 .6.3 3.6 2.3-.1 1.5h-1.1l-2.8 4.6.2 2.3h.6l1 1.6.2.4ZM216.3 217.4s0 0 0 0 0 0 0 0Z"
        fill="#BB9EA0"
        stroke="#fff"
        stroke-width=".8"
        stroke-miterlimit="22.9"
        stroke-linecap="round"
        stroke-linejoin="round"
      />
      <path
        d="M216.3 217.3c0-.2 0-.1 0 0v-.1l-.8-2.5 1-6.5.5-.6.3-.8-.4-2 .3-1.7-.6-.7h0v-.2l-.3-2 .4-.6.7.2v.2h.1l.1.6.2.1.3-1.7-.4-1.2-1.6-1.8-.9-1.4v-.2h0l-.8-2.2v-.2l-1.5-1.2-.2-.2h0l-2.9.7-.7 1h-1.3l-.2-.9-2.4.3.2.8-4 .5-.8-.5-1.5.4v-.6l-2.3.6-2.2-.4-1.2-1.7-1 .9h-1.1l-1.6 2.1-3-.3-1.3-.6-1.4.7-.3 3.5-.5.5-.5-.9-1.2 1 .3.3-.4 1 .5.3-.3 1 .1.5-1-.4-1.6-.3.1-.5-.7-.5-.9 1.2-1 .2-1.4 3.8 1.6.9h-.5l.5.8-1 .1-.3.8h.1l3 .8-.4.3.1 1.3-.6 1 1.4.5.2.5 1 .2.3-.3-.6-.3.9-.4 1.6.3v.5l1 .7.3-.7.9 1.3-.3.7.8.6-.5 1.8-.7.8.1 1.1 1.2 1.2 1.1-.6 1 .8 1.4.2.4-.6.7-.6.7.7-.3 1.6h1.7l.6.3 1 1.1 1.9.2.2 1.6.7.7-.5 1.2.5 1.2h.2l.6.4h0v-.2l-.1-.7h1.2v-.5l1.6.3.3-.8.1-.7.3-.2.8-1-.7-.9.3-1.2-.6-.6.8-1.8.9-.3.6-.6.6-.2 1.8-1.5.3.3-.3.3-.2 1.1.3 1 .7-.4.7.1 2.8-2.1.2-2.5 1 .4.2 1 .4.3-.3.9-.5.2.2.9 1.4-.1 1.4.4 1.4.1-.1.7.9.2v-.7l.8-.7v-.2s0 0 0 0Z"
        fill="#BB9EA0"
        stroke="#fff"
        stroke-width=".8"
        stroke-miterlimit="22.9"
        stroke-linecap="round"
        stroke-linejoin="round"
      />
      <path
        d="m216.4 217.5-.8.7v.8l-1-.3.2-.7-1.4-.1-1.4-.4-1.4.1-.2-1 .5-.1.3-.9-.4-.3-.3-1-1-.4v2.5l-3 2.1-.6-.1-.7.5-.3-1 .2-1.2.3-.3-.3-.3-1.8 1.5-.6.2-.6.6-.9.4-.8 1.8.6.5-.3 1.2.7 1-.8 1h-.3v.8l-.4.8-1.6-.2v.4h-1.2v.7h0l1.3.7.4 1.2 3.7 1.3.2-.3 1.6.2v-.2l-.2-.2.2-.8-.4-1 1.3-.5 1.5 1.8 1.6.7.8-.6.1-.6.8-.3v.6l1.3-.5h1.4l1.3-.7.5.5-.2.5.8.2 1.2-.5.1.7 1 .6.5-.6-.1-.2-.5-1v-.2l-.2-2.4.5-4-.5-2.1h0l-.8-1.8v.2Z"
        fill="#C11E1E"
        stroke="#fff"
        stroke-width=".8"
        stroke-miterlimit="22.9"
        stroke-linecap="round"
        stroke-linejoin="round"
      />
      <path
        d="m217.8 228.8.1.2-.6.6-.9-.6-.1-.7-1.1.5-1-.2.3-.5-.5-.5-1.3.7h-1.4l-1.2.5-.1-.6-.8.3-.1.6-.8.6-1.6-.8-1.5-1.7-1.3.6.4 1-.2.7.3.2v.2l-1.7-.2-.2.3-3.7-1.3-.4-1.2-1.2-.7h0v.2h0l-.2.8-.7.8.3 1.3-1.7-.7v1l.5.3.3 2 1 .6-.4 1.5-.8.8.4 2.5.5.3.9 1.4 1.2.8-.5.5-.7 1.2-1.4.6h-.1l3.6 1-.2 1.1h1v-.6l1.7-1.1v-.2l.6-1.4 1.2-.9.4.4.5 1 1-.4 1 .3.1 1.5 2.6-.9.3.3 1.5-.1 1.1-2 1.2-.4-.4-1.2.6-.5v-1.5l-1-1.7-2.4-.7v-1.4l3.5-.7 1.5.6v-.3l2 .2v-.4h1l.7-2.2-.1-.2h0l-1-1.5h0Z"
        fill="#BB9EA0"
        stroke="#fff"
        stroke-width=".8"
        stroke-miterlimit="22.9"
        stroke-linecap="round"
        stroke-linejoin="round"
      />
      <path
        d="M218.8 248.2h0l1.3 2.5-.4.3.2 1.2-.3.1 1 2-.7.3-1.4-.2-1.7 1.2-1 .5-.7 1 1.2 1.1-.1.7 1.2.2 1.5.4.3 1.2v.8h.9l.2-.5 1.2 1.1h-.6l-.1.3h-1.3l-1.6.2-.3-.3-1-.3-1 .4-.9-1-2.6 1.6-.7-.7-.1.2v.8h-.2l-1.3 2.4-2.7-.9-1.6-2.4.5-1-1.2-1.2.1-1.7 1-2.3 1.3-.5 1.2-1h.7l.7-.9-.4-1.4.3-1-.1-.4.7-.1.3.7.6-.6.2-.5.6.2.7.5.8-1.5 2-.4.9-.7h.5l.2-.4.6.4.2-.4h.9Zm-11.3 25h.9l-.6-.5h-1.2v-.6h1.1l.3-.6-.5-.2.5-1.4.9.1v.4l2 .5 2-.6 1.3.3v-.7l2.3-.4.8.2v.8h1.6l3.2-1.5 3 .7v-.7l.3-.1.9.7v-.7l.6-.1v.6l1.2-.2 1.9.4-.1-1.1-.6-.5v-.6l.8-.1.3-.5 1.5-.1v-.2h0l-.3-1.2.7-1.5.2-1.7-.5-.7-2.2-.4-.8-1v-.1l-.1-.2.3-2.4-.8-.6-1.6-.2-1-1.4-.1-.2h0l-1-2.7.4-2.4-.1-5.1-.8-4.2-1-3.2-.5-3-2.5-1.8-.3-.5h0l-1.1-1.7v.2l-.7 2.2h-.9v.4l-2-.2v.3l-1.5-.6-3.5.7v1.4l2.4.7 1 1.7v1.5l-.6.5.4 1.2-1.2.4-1.1 2-1.5.1-.3-.3-2.6.9v-1.5l-1.1-.3-1 .3-.5-1-.4-.3-1.2 1-.6 1.3v.4l.5.3h1.2l1.1-.4v1l-.7.3h-1.5l-.2.6-.5.8h.7l.3 1-1 .1-1 .6-.8-.3-1.7 2.5.6 2-.6 1.1-1.2-1.6.2-.7-.9-.4-.3-.5-1.2-.1-.8.5.1 2.5-.4.9v.8l1 .5-.4 1.2-.8.6.4.6 1-.1.3.7-.8.7-.8 2.7v.6h.7l.5.3-.7.3.2 1.3 1 .3.1.7h.1l.8.6.9.2-.5 1.2.2 1 1.1.7v.5l1 .7-1 .6 2 1.8 2 1.4 3.2.6 2.2-.9Z"
        fill="#BB9EA0"
        stroke="#fff"
        stroke-width=".8"
        stroke-miterlimit="22.9"
        stroke-linecap="round"
        stroke-linejoin="round"
      />
      <path
        d="m206 256.2-1 2.3-.1 1.7 1.1 1.2-.5 1 1.6 2.4 2.7 1 1.3-2.4.3-.1-.1-.8v-.2l.8.7 2.6-1.7.9 1 1-.3 1 .3.3.3 1.6-.3 1.3.1.1-.3h.6l-1.2-1-.2.4h-.8v-.8l-.4-1.2-1.5-.4-1.2-.2.1-.7-1.2-1 .7-1.1 1-.5 1.7-1.2 1.4.2.7-.3-1-2h.3l-.2-1.3.4-.3-1.3-2.5h0-.9l-.2.4-.6-.4-.2.4h-.5l-.9.7-2 .4-.8 1.5-.7-.5-.6-.2-.2.5-.6.6-.3-.7h-.7v.6l-.2.9.4 1.5-.7.7h-.7l-1.1 1.1-1.4.5ZM195 264.8l-.2.4 1 .2.1-.2h-.3l-.3-.3.3-.1h0v-.1l-.2-.7-1-.3-.2-1.3.7-.3-.5-.3h-.6l-.1-.6.8-2.7.8-.7-.4-.7-1 .1-.3-.6.8-.6.4-1.2-1-.5v-.8l.4-1-.1-2.4.9-.5 1.1.1.3.5 1 .4-.3.7 1.2 1.6.6-1.2-.6-2 1.7-2.3.9.2.8-.6 1-.1-.2-1h-.7l.5-.8.2-.5 1.5-.1.7-.4v-.9l-1.1.5h-1.2l-.5-.4v-.4.2l-1.7 1v.8h-1l.2-1.2-3.6-1h0-.6l-.4.4-1.1-.2-1.4.7v.4l1 .4-.1.2-1.4 1-1-.2-.4-1.4.2-.8-.1-1-1.9-1.4-.6.3-.2.5-1-.5.5-1-.1-1-.4-.1-1.3.2-2 .5h-1l-.5-.9-1.4-.4v-1l.5-.1-.1-.5.5-.5h0l.2-.3-.5-.1-.7.6-.8.1v.7l-.4.2-.3.5-.6.2-.2.9-.7.5-.6-.8-.8.4-1 .5-.7 1-1.8.3v-.6l-.7-.4-.8.1h0l.2.5-1.4.6-2 .8-.2 2.1-2.2-.5-1.8.6v.3l.8.7-.4.5.1.5.6.5-.7.4-.3.5.6 1.7 1 .6v.5l.4.4-.1.8.5.2-.3.5 1.3 1-.2 1.5-.4.2.5 1-.4.2.1 1h-.6l-.8 1.5.4.4-.5 1.6 2.9-.2.9.2-.2 1-.4.2-.8 1.8v.6h-.4l-.6 1.5h-.6l-.2.6-.6-.3v.6l1 .4-.2.7-.3-.1-.4.7.4.3-.2.2.2.3h-1.2 0v.4l.3.3-.3.3.1 1 .4.2 1.2.5-.4 1.1.4 1 1.2.4v.3l1 .1-.1.3.6.2.5-1 .4.2 1.1-.9.4-.7 1 .5.1.7 1.2.3.2.5 1.2.2v-.3l.5-.3.4.5h.4l.8-.5-.2-1.5-.5-.2-.3-1.5-.6-.5h1.4l.2-.5.6-.1.3.2.3-.4h.7v1h1v.3l1-.1.3-.7-1-1v-.6l.7-1 .7 1 1.2-.4 1-1.1 2.7.2 1-.1.4-.7 2-.4v.8l1.3-.6.2-.5.7.2.3-.8 1 .1.4-.5 1-.3Z"
        fill="#BB9EA0"
        stroke="#fff"
        stroke-width=".8"
        stroke-miterlimit="22.9"
        stroke-linecap="round"
        stroke-linejoin="round"
      />
      <path
        d="M181.5 236.3h0l.8.3.6-.4h.6v.8h.3l.8-.2 1.6-.1.7-.9.3-.1-1-.7.3-.7-.5-.2.2-1.7.6-.3.2-.8.9-.8h.5l.3-.2.2-1-1.2-1.4-.7.5-.8.3-1.4-.3.4-.4-.9-1.5-1.7-.4-.3-1-1.5-.3h-.8l-1 1-.3 1.8-1.4.4-.3.6-.8-.4-.3-.4-.2 1-.6 1.4-1.3.4v.6l1.9 1 .4 1.2-.3 1 .6.5h1v-.7h1.3l-.3.6-.4-.1-.2.5-.8.4.1.8.8.3.8.5.4-.3.3-.6 1-.5v-.4l.7.4h.1l.5.2-.2.3Z"
        fill="#BB9EA0"
        stroke="#fff"
        stroke-width=".8"
        stroke-miterlimit="22.9"
        stroke-linecap="round"
        stroke-linejoin="round"
      />
      <path
        d="m197.2 227-.6-.4h-.2l-.5-1.2.5-1.2-.7-.7-.2-1.6-2-.2-.9-1-.6-.4h-1.7l.3-1.6-.7-.7-.7.6-.4.6-1.4-.2-1-.8-1 .6-1.3-1.2v-1.1l.6-.8.5-1.8-.8-.6.3-.7-.9-1.3-.3.7-1-.7v-.5l-1.6-.3-.9.4.6.3-.4.3-1-.2-.1-.5-1.4-.5.6-1V208l.4-.3-3-.8h-.2l-.3 1.2.3.2-.3 1.3h-.3 0l-.5.6-.7-.1-1.5.5-1.6 1.2v.3l-1.7 1.2.9.5-.4.2.2.6-1.1 1h-.7l-1 1.1-.7 1.9 1.3.8 2-.2-.6 2 .2.4-2-.2v.5l1.1 1-.2.4h-.3l-.6.6.2.4-2.2 2.9h0l-.1.1.7.2 1 1 .1 1.8 1.4 1.7-1.3.3.6.9-.1.2h.2l-.2.8-.2-.3v-.3l-.8-.1v-.6l-.4-.2-.7.9.6.5-.4 1h-.7l.2.5.8-.3 1.1 1.3v.3l1.6.5.6-.6.7.4 1.3 3h0l.9-.2.6.4.1.6 1.8-.3.8-1 1-.5.7-.4.6.8.7-.5.2-1 .6-.1.3-.5.4-.2v-.7h.8l.7-.7h-.1l-.7-.5v.4l-1 .5-.3.6-.4.3-.8-.5-.8-.3v-.8l.7-.4.2-.5.4.1.3-.5-.3-.1h-1v.6l-1 .1-.6-.5.3-1-.4-1.1-1.8-1.1v-.6l1.2-.4.6-1.4.2-1 .3.4.8.4.3-.6 1.4-.4.3-1.7 1-1 .8-.1 1.5.4.3.9 1.7.4 1 1.5-.5.4 1.4.3.8-.3.7-.5 1.2 1.3-.2 1-.3.4-.5-.1-.9.8-.2.8-.6.3-.2 1.7.5.2-.3.7 1 .7-.3.1-.7.9-1.6.1-.8.3h-.4l.1-.9h-.6l-.6.4-.8-.2h0l-.5.4v.5h-.4v1l1.4.5.6.8 1 .1 2-.5 1.2-.2.4.2v1l-.4.9 1 .5.2-.5.6-.3 1.9 1.3.1 1.2-.2.7.3 1.4 1.1.3 1.4-1v-.3l-.8-.4v-.4l1.3-.7 1 .2.5-.5.7.1h0l1.4-.6.7-1.2.5-.5-1.2-.8-.9-1.4-.5-.3-.4-2.5.8-.8.4-1.5-1-.7-.3-1.9-.5-.3v-1l1.7.7-.3-1.3.7-.8.1-.8h0Z"
        fill="#BB9EA0"
        stroke="#fff"
        stroke-width=".8"
        stroke-miterlimit="22.9"
        stroke-linecap="round"
        stroke-linejoin="round"
      />
      <path
        d="m168.1 222.8-1.1-.9v-.5l2 .2-.2-.5.7-1.9-2.1.2-1.3-.8.7-2 1-1h.7l1-1-.1-.6.4-.2-.9-.5 1.7-1.2v-.3l1.6-1.2 1.5-.5h.7l.5-.5-.7-.6.1-.5-2.9-.3-.4.2v-.5l-.6-.2-.5.3-.9-.6v.3h-.8l.2-.8-1.9-.2-.3 1.2-2.2.2-.4-.5.5-.5-1.1-.2v.5l-2.4-1 .5-1.2v-1l-2.9-1.8.8-1.1-2-.6-.9.7-1-.1-.3-.6-1.7.1v1.2l-1.4 1-2.4-.5-.3-.6-.9.2-.7.8-1.3-1.3-.5-.2-.3-.4v-.1h.7l.3-.7H145l-.2-1h-.4l-.2.9-.7.1-2.2-1.4h-.6l-.1-.7-1-.3-.3.4-1.5-1-.4.4-1.4-.5h-.1l-.2.5.9.5.2.6-.4.7 1.6 1 1 2.1 1 .5v.4l-1.7-.2-2.4 1.4-.3.6.1.4 1.7.9.5 1.8 2 .6v.3l-1.1.4-.6 1.2-.9-.4-.8.2-.6-.7-1.3.7.2.7-.7.7-1-1v.2l.2.8 1 .8 1.5.4.3-.3 1.3 1.1.8 2.4-.9 1 .4 1.7 1.8.9.7-.1.6 2.1h.7l.3-.5h.3l.3-1.1h1l.1.4.6.5-.4 1 .9.4.2.4 1.5.3 1-.1.1-.4h.4l.2-.3.9.2-.2.5h.6v.5l-.6.1-.5.8.7.2-.8.5v1.2l1.5 1 1.9-.8.4.5-.1 1.5.3.7-1 .4-.2 1.4.4.5v.7l-1.2.4v1.6l.4.3-.5 1.4h.7l1.5-.5 1.4-1.9.1-.7 1.3-.7-.5-.8.3-.5-.3-.2.2-.4-.2-.4.4-.5 1.6-.4 1.5.6.9-.4h.3l.4.6h1l.3.5.7-.8h.3l-.1-1.1.6-.7 2-1 .6.3 2.3-2.9-.2-.4.6-.7h.3l.2-.4Z"
        fill="#CBCBCB"
        stroke="#fff"
        stroke-width=".8"
      />
      <path
        d="m136.1 237.7-.4 1-.6.1 1.4.8 2 .5 2.6-.6 2.4.2 1.5.7h2.7l1.3-.7 1-.2-.2-.4.1-.4.7.3.7-.6 1 .2-.5-1-1.5-.4v-.1h.4l.2-.3-.3-.6h-.7l.5-1.4-.5-.3.1-1.6 1.1-.4.1-.7-.4-.5.2-1.4 1-.4-.3-.7.1-1.5-.4-.5-1.9.8-1.6-1 .1-1.2.8-.5-.7-.2.5-.8h.5l.1-.5h-.6l.2-.6-.9-.2-.2.3h-.4v.4h-1.1l-1.5-.2-.2-.4-1-.5.5-.9-.6-.5v-.4h-1.1l-.3 1h-.3l-.3.6h-.7l.2.8-.7.5-.2 1.3-1 .3-.5.8v2l-2-.4-.3.2-1-.4-.8.4v.5l-1.4-.1-.2.4.5.3h.5l.9 1 .8.2.1.8-.5.7h.4l.4 1.6-.2.2.7.6.5-.3.3.8.9.7-.2.3.9.2v.6l-2 1.5-.5-.3h-.2v.5Z"
        fill="#CBCBCB"
        stroke="#fff"
        stroke-width=".8"
      />
      <path
        d="m146.6 243.8-.8-.7h-.5l-.5-.7 1-.5-.3-.2.7-.5.1.2.6-.2-.8-.8H145l-1.5-.7-2.4-.2-2.7.6-2-.5-1.3-.8.6-.1.4-1v-.5h.2l.5.3 2-1.5v-.6l-1-.2.3-.3-1-.7-.2-.8-.5.3-.7-.6.2-.2-.4-1.5-.4-.1.5-.7-.1-.8-.8-.2-.9-1h-.5l-.4-.2h-.1l-2 .3-1.2-1.2h-.7l-1.5-.4.2-.8.5-.5-.5-.8-1.8.8-1.3 1.8-.6-1 .2-.3-.4-1-.7-.5-1.4.4-.5-.5-1.1.6-.8-.4-.6 1.1-.5.2-.8.3.9 3.2-.9 1.2.6.7-1 .9-.1 1.3-1.2 2.2-1.6.7-2-1-1.3.2-.4 1.5 1.2 1.2-.1.3-2.5-.3-2.4.7-.5.6.5.8-1.2 1.4-.3 2.1 1 .4.6 2.7-.5.4-1-.3-.6.7 1.2.5v.5l1.1 1 1 .6v.3l-.5.3.3.9 1.6-.5.3-.5.3.1-.5.9.3.3-.2.1.2.4.4-.1v-.8l1 .4-.3.2.7.2.5.5-.1.2h.7l-.8-1.4.1-.3-.7-.2v-.5l2.2-.4.3-.4 1 .1.7.8h.7l1 1h.4l1 1.1.6-.2 1.3.5.8-.7 1.8-.2.3 1 .6.2.4-.5.6.1v-1.4l.8-.3-.5-.9.1-.7 1-.3.8 1v1l1.8.7h1.3l.1-.3 1.4-.4.5 1.6 1.6-.2.4-1.3.9-.3.1-.4-.5-.3v-.7l.4-.5 1.3 1 .5-.5 2.2.6 1-1.3-1.5-1.2.5-1-.7-.1 3.2-2.7h.4l1.6-.4v-.3l-.2-.3h1v.2l1.5.1.3.5-.3.2.6.2.2-.6v-.5Z"
        fill="#CBCBCB"
        stroke="#fff"
        stroke-width=".8"
      />
      <path
        d="m164.4 269 .2.3h1.2l-.2-.4.2-.2-.4-.3.4-.7h.3l.2-.6-1-.4v-.6l.6.3.2-.7h.6l.6-1.5.5.1-.2-.6.9-1.8.4-.2.2-1-.9-.2-3 .2.6-1.6-.4-.4.8-1.6h.6v-1l.3-.1-.5-1 .4-.2.2-1.5-1.3-1 .3-.5-.5-.2.1-.8-.4-.4v-.5l-1-.6-.6-1.7.3-.5.7-.4-.6-.5v-.5l.3-.5-.8-.7v-.3l1.8-.6 2.2.5.2-2.1 2-.8 1.4-.6-.3-.5-1.3-3-.7-.3-.6.6-1.6-.5v-.3l-1-1.3-1 .3v-.4h.6l.4-1-.6-.6.7-.9.3.2.1.6.9.1-.1.3.2.3.2-.7-.2-.1.1-.2-.6-1 1.3-.2-1.4-1.7v-1.8l-1-1-.8-.2v-.1l-.6-.2-2 .9-.6.7.1 1h-.3l-.7.9-.2-.4-1-.1-.5-.5h-.3l-.9.3-1.5-.6-1.6.4-.4.5.2.4-.2.4.3.2-.3.5.5.8-1.3.7v.7l-1.5 2-1.5.4.3.6-.2.3h-.4v.1l1.5.4.5 1-1-.2-.7.6-.7-.3-.1.4.2.4-1 .2-1.3.6h-1.6l.8 1-.6.1v-.2l-.8.5.4.2-1.1.5.5.6h.5l.8.8v.5l-.2.6-.6-.2.3-.2-.3-.5h-1.5v-.4h-1l.3.4-.1.3-1.6.3h-.4l-3.2 2.8.7.2-.5 1 1.6 1.1-1 1.3 1 .9h.3l.7.4 1-.2v-1.4l.6.1.2-.7.9.4-.3.6.8.7-.7 1 .6.7-.3 1 .8-.3.9.5.2-.1.9.9v1.4h1.3l.5-.4.8-.1.7.6 1.4-.1 2.2 1-.4.7 1 .6-1 1 .8.4.2-.2 1.4-.1.8 1.1.7.4-.5 2.2v.3l2.4 1.4-.1.5-.9.3.3.6-.3.6h-.6l-.2.1 1.3 1.3-.3.5v.6l.5.2.3-.3v-.4h1.3l1.2.5 1-.4.5-.7h1.4Z"
        fill="#CBCBCB"
        stroke="#fff"
        stroke-width=".8"
      />
      <path
        d="M164.6 269.3h0l-.2-.3H163l-.5.8-1 .4-1.2-.4-1.3-.1v.4l-.3.3-.5-.2v-.6l.3-.5-1.3-1.3.2-.2.6.1.3-.6-.3-.6.9-.3v-.5l-2.4-1.4v-.3l.6-2.2-.7-.4-.8-1.1h-1.4l-.2.3-.8-.5 1-1-1-.5.4-.8-2.2-1-1.4.2-.7-.7-.8.2-.5.4h-1.3v-1.4l-1-.9-.1.1-1-.5-.7.3.3-1-.6-.7.7-1-.8-.7.3-.6-.9-.4-.2.7h-.6v1.3l-1 .2-.7-.3h0l-.4 1 .1 1-.5 1.8-1 .2-1.2.7-.4 1-1.4-1-.6 1-.3 1.7.6.6.7-.4 1 1-.2 1.6-2 1.3 1.6 1.5.3 1.3-1.5.1v1.2l-.4.1.6 1.5.4 1.6-.6.2.2.4-.7.6-2 .4v1.2l.4.1.5 1.1-.4.5.5.3-.3.6.5.3-.4.3-.6-.2-.3.8-.1.2h1.4v.7l1 .6v-.6l.8.7-.2.3 1.1.5v-.6l1 .6v-.6l-.6-.4.1-.3 1.2.7 1.3.6 2.2.2.8-.5v-.8l.6.2v.9l1.3-.2 1 1 .5-.1.5-.6 3.3.3.9.4.6-.5h.6l.3.6h.7l-.2-1 .7-1 2 1.2.5.7 2.4.7.7-1 2 .8-.4-.7 1.1-.3-.2-.8.3-.6-.8-.3v-.5l.2-.5-.6-.2v-.5l-1.4-1.4-.3-.5-.9-.3 1.2-.6.3.4 1-1h.6l.3-.6 1.2.6 1.4-1.6h1l.1-.3-.4-.1v-1.1l.2-.3-.4-.3.1-.3h0Z"
        fill="#CBCBCB"
        stroke="#fff"
        stroke-width=".8"
        stroke-miterlimit="22.9"
        stroke-linecap="round"
        stroke-linejoin="round"
      />
      <path
        d="M208.4 273.3h0l-1-.2-2.1.9-3.1-.6-2.1-1.4-2-1.8 1-.6-1-.7v-.5l-1.1-.8-.2-.9.5-1.2-.9-.2-.8-.6h0l-.3.2.3.2h.3v.3l-1-.2v-.4l-.9.3-.5.5h-.9l-.3.7-.7-.2-.2.5-1.3.6v-.8l-2 .4-.3.7-1.1.1-2.6-.2-1.1 1.1-1.2.4-.7-1-.6 1v.7l1 .9-.3.7H180v-.2h-.8l-.1-1h-.7l-.3.4-.3-.2-.6.1-.2.5h-1.4l.7.5.2 1.5.5.2.2 1.5-.8.6h-.4l-.4-.6-.4.3-.1.3-1.2-.2-.2-.5-1.2-.3-.2-.7-.9-.5-.4.7-1.1.9-.4-.1-.5.9-.6-.2v-.3l-1-.1v-.3l-1.1-.4-.4-1 .4-1.1-1.2-.5v.2h-1l-1.5 1.7-1.2-.6-.3.6h-.6l-1 1-.3-.4-1.2.6.9.3.3.5 1.3 1.4.1.5.6.2-.2.5v.5l.8.3-.3.6.2.8-1.1.3.3.7.2.4-.3.4.2.7.1 1.4.4.6-1 .5 1.3 1h.1l.5-.3 1 .6.2-.2h1.4l1.1-.1.1-.7 1.2-.3 1.4 1 .6.2.6-.6 1 .6 1.2.8.8-.1.7-1 .8.9.8.5 1 .6.5-.4h.4l.4.6 1.4.4.5-.2.2.3-1 .6v.5l-.2.3 1.4.5 1 1-.3.6-.2 1-.8.1-.6.8.4.2v.5l.6.6.5-.1.3.6h-.5l-.7.2-.4 1-1.3-.2v2l2.5 1 .7 1.6 1-.5.2-.5.4-1h1l1.2.7h1.3l1-.5h1l.2-.4h.4l.2-.9 1.2-2.2-.2-.3.2-.9 1-.3 1.6.1.2.7.2 1.6-.7 1-.1.3.7.7.1.4h.1l.3.2 1-.8 1.5-.1.2.4.4-.5.4-.1.4.6.4-.6-.5-1.3 1.3-.3.5-1.2 1-.2.2-.3-.4-.5.2-.7-.3-.4h-.6v-1.5h.4l.3-.9h-.5l-.2-.4.2-.5v-1.1l1-2.5-.4-1 .7-1 1.4-.1 1 .4 1.4-.5.8-1-.2-.3.4-.7h.5l.4-1.6-.3-.4.4-.4.8-1.6-.9-1.1.1-.6-.3-.8.4-.6.4.1.8-.4.5-1 1-.3.1-.3-.6-.4h-.5Z"
        fill="#BB9EA0"
        stroke="#fff"
        stroke-width=".8"
        stroke-miterlimit="22.9"
        stroke-linecap="round"
        stroke-linejoin="round"
      />
      <path
        d="m194 341.3-1.3.6h-1.2l-.1.5-2.2-.5-.5.5-.5.3-.9-1v-1l-4.1-.7-.2.2h-1.4l-1.4-1.1-.7.1-.4 1.2 1.2 2.6 1.2.6.4 1-3.5-1-.3.8-3.6.5v.5l-4.8 1.2-.4.3.5.7h-1.3l-.5 1-1.5.4-.3 1.7-.4.6h-.1l.2.4 1.9.7.7 1.2 1.8 1 3.1.3.4.4 1.1.2.6-.2.9.3.6-.6 2 1 .4.7-.6.9 1.8 1.1-.5.8.3.4h1l.4.6-1.4 1-.2 1-.7.7.9.1.2 1.2-1.4 1.7-.8-.1-.4.4 1.3.2 1.5.8-.4 1.3h.4l.5-1.7.3-.1.8-1.5.6.2v.6l.8.8h.3l1.2-1.1h.6l.8-.4.7.5.4-.3-.5-.3.1-.7h2l2.9-3.9 1.4-1 1.6.4-.1.4 1.2.9-.1.4.4.7h0l.2-.4.7.3-.5-1v-.9l.8-.6 2.2.8 3.5-.3 3 1 .5-.3.5.2v3.5l1 1.9.8.3.3.3-.7.6 1.6 1.7-.1 1 1.1.3v.7l1 .7.7.3-.6 1 .3.3h.7l3 1.5 3.5 3 .7-.2.7 1.2 2 2 .4-.1.5-1.8 1.8.9.6.8.1-.7h.5l.2 2.5.4 1.4.2.2v-.1l2.2-2.6.5-1.1V376l-.4-2 .3-1.7 1.4-2.2v-1.5l-.9-1h0v-.1l-.3-1.2 1.1-2.5v-1.2l-1-2.4-.4-2.3.2-1.1 1.7-2.1 4.3-2.8.3-2.4 1.4-3.1-.3-2.1.6-1.4-1 .2-.8-.4-.6.2-2-1.4-1 .2-1.2-.5-1.3-1.3-1 .3-.2.7-1.6-1.1h-.8l-1.2-1-1.2 1.1v2l-1.4-.7-1 .4v-.6l-3 .8 1.3 1.9-.6 3.9.9 1.6 3.3-1 .3-.7 1.9 1.3v.9l-.8 1.6 1.6 2.4-.7.6v1.5l.8.6-.1 1-1.3.1-1-.6-.6.2-1.6-2.7-1.9-1-4.2.8-1.2-1.5-.9-.2v.6l-1.2.2-1 1.2-1.6-.5-.5 2.1.6-.1-.3 2.3-.9.8-1.3-.2-.5-1.1-.9-.7.8-1.4-.8-1.5.2-1.3 1.2-1v-.6l-.4-.4 1-1-.7-.5.8-3.5.6-.3 1.5 1.2 1.8.2.6-.5-.2-.3H212l.6-.4.7-.1.8-.6 1.7-.3 1-1.6h0l-.6-.5-2.5-.6-.6-.7h-.8l-.3.7h-.5l.3-2-2.4.2-.3-1-7-1.5-.2-.5-.8-.4-1 .5-.6 1.4-1.2-.2-.1.5-.5-.2-1.2.9-.5.5-1 1h-1.1v-.1h0ZM236.5 324.7l.1-3 .6-2.2-.4-1.2-2.1-1.7v-.2h0l-.5-1 .2-1 2.1-3.8.8-2 .3-1.7-.3-7 .9-3.4-1.6-1.9h0l-.1-.2-.3-2.1 1-1.8.4-2.3 1.3-2.3.2-1.6-1-3.4.1-3.2-1-.8-2-2.2v-.2h0l-3.3-7.8h-1.5l-.3.6-.7.1-.1.6.6.5v1l-1.8-.3-1.2.2v-.6h-.5l-.1.8-.9-.7-.3.1v.7l-3-.7-3.2 1.5h-1.5l-.1-.8-.8-.2-2.2.4v.7l-1.4-.3-2 .6-2-.5v-.4h-.9l-.5 1.3.5.2-.3.5h-1l-.1.6h1.2l.6.6h.5l.6.4-.1.3-1 .3-.5 1-.8.4-.4-.1-.4.6.3.8v.6l.8 1-.8 1.7-.4.4.3.4-.4 1.5-.5.1-.4.7.2.4-.8 1-1.5.4-1-.4-1.3.1-.7 1 .3 1-.8 2.5v1.1l-.3.5.2.3.5.1-.3.8-.4.1v1.5h.6l.3.4-.3.7.5.5-.1.3-1.1.2-.5 1.2-1.3.3.5 1.3-.4.6-.4-.6-.5.1-.3.5-.2-.4-1.5.1-1 .8-.3-.2h0l-.5.7-.7.3-.7.8-1.8 3.3h.6l-.3.8 1.3.3 2 1.2-.6.8-.4-.3-.8 1.4v.9l-.7.3.1 1.2-.1.4h-.9l.3 1-1 1.7-1.2.2-.6 2.3.4 1.1.4.2.6 1.8h0l3.5-.8-.3 1.5.4 2 1 .1.3-.6.6.1v-.5l2.6-1 .3-1-.2-1 1.4-.6 1-1.5h1.2l.7 1.7.8-.2.1 1 1 .9h1l1.2-1 1.3-.2 1 .4v.6l1.8.2.3-1 1 .2 1.4 1.8-1.2 1 1.6 1.6h1.3l.9.6 1.3-.5.1.3 2 .4.4-.2-1-.6v-.4l2.6.4 3.2-.4 1 .2.9 1.6 2.4-.6.7.3.1-.6h1l2.4 1.5.4-.7 2-1.3h.6l.6.6 1 .6h0v-.1Z"
        fill="#CBCBCB"
        stroke="#fff"
        stroke-width=".8"
        stroke-miterlimit="22.9"
        stroke-linecap="round"
        stroke-linejoin="round"
      />
      <path
        d="M135.2 195.4h-.4l.3.6.9.4v-.6l1.4.6v-.2l-.4-.4h.6l-.2-.7-1.7-1.1-.4.5v.9Z"
        fill="#CBCBCB"
        stroke="#fff"
        stroke-width=".8"
      />
      <path
        d="m176.8 143.2-.4.5v.2l-.6.3-3-1.8h-2.3l-4.3-2.6v-.1l-.2-.2.4-.7-.7-.2v-.2l.1-1.6-1-1.2-.2-.3 1.4-1 .2-.9-.7-.1-1.1-2.1-.2-.3.2-.2-.3-.1-2.4.5-.8-1-1-1.1-1.4 1.2-2-1v-.3h-.1l-.4-1.4.5-.4.4-.3h-.2l1.4-.3-1-.7h.3l-.3-.2.7-.3-.6-1.9.7-1.7 2.1-1.8h1.2v.3h.2l-.6 3 1.7.5.5-1.2.7-.2-.8-.6-.6-.8-.1-.3 2.7.2.6.5 2.5.1-1.6-.7v-.2h-.1v-.9l1.2-.8.3-1-2.6-.8-1.2-1.7-1.6.8-1.8-3.1-1-.2-1.1 1.4-1.5.2-.5-.8-.1-.2v-.8l-.2-.9-1.6-.5-1.1.5v1.2l-.5.7h-1.2l-.2-.3-.4-.6h-.8l-1.3 1.9h-.9v-.3h-.1v-1l1-.7.9-1.8-1.2-1-.2.8-4.7-3.3-.8 1 .3.4.2.3-.7 1 .3 1.7-.6 2.2.5.3-.1.1.3.2-1.3.7.5 1.9-1 1.4-1.7.3-1.5-1.1v-.2l-.2-.1.7-2.5-1.4-.7v-.2h-.1v-.5l-.6-.4-1.4 2.4-.7.1-.4 1.5-.8-.2-.1-.3-.7-1.3.3-1.5-1.1-1.7-.9-.4v-.2l-.1-.1v-.8h-.4l-.1 1.1-3 1-1.5 2.3.4.2v.2l.2.1v1.5l-1.4 2h-1.8l-2.5 3.4 1.6 2 .1.2-1.2 1.8 2 3 .2.3h-4v-.3h-.2l.2-2.3-.2-1.4-1.2-1.4-1.2-.3v3l-1.8-.5-.1 1.8-1.1 1 .4 1.7-1 1.2.3 1.9-1.3.8-2-.1-1.4-1-3.5-1v-.2h-.2v-2.2l-1.3-1v-.2l-.2-.1-.3-1.5 1.8-.5-1.1-1.5-.2-.3.1-.6h-1.6l-.8.9.6.7.1.3-.6 1.4-2.3-.7-.8.7 1 1.5.1.3-2.6 2.7 1.2 1 .1.2v1.3l-3.1.3-2.5 3 .5.2-.5.1.7.2-1.8.4-.1.5.8.9h1.4l1 .7h.1v.2h.1v.2l.1.7-1.1.9v1h-1v.6h.8v.3h.2v1.5l-1 1-.9.1-1.1-.3-.9.7.5 1.8-1 1.4-1.3.4v1.8l.6.9h.5l.7-1v.3l.1-.1.2 1.1-.2 1-1.4-.1.6 1.1-1.8 3h-.7l-.1.5h.7v.2h.2L87 162h-2.5l-1.2 1-.8-.3-.3.8h-1.1l-.9 1.3H80l-.2-.2-.5-.8-2.7 1-1.4 1.6 1.6 1.8.2.3-.3.5h.7v.3h.2v2l-1.1-.3-.4.6-1.8-.7-.1 1.3.4.7.1.3H73l-.8.6.2.2v.1l.2.1-.1 2.1-.3.4-.2-.3-.4-.6h-1v.2l-.9.2v-.3h-.1v-.4l-.8-.2-.6 1-2 .2-.1-.2h-.1l-.1-.6h-1.4v1.1l-.9.3-.2 1-2.1-.1-.3 1.3-1.2-.5-1.5 1 .1.2.2.2-.2.9-1.3-.5-1.5 2.3-.9-.4-.8.7.4.4.2.3-1.8 1.1.6 1.3 1.3.6v.2h.2v.6h-1.4l-1.4.8.1 1.2-.4.4-.4 1.3-.7 1.3 1.6 1.1v.1l.2.2-.4.9h-1.5l-1 2.4.5 1 1 .6v.1l.2.1-.1.4-1 .4v.9l-.7.7 1.3.6-.1.1-1.5 1.4.3 1-.6.3h-.2l-1.9 1.3-.2.1v-.7l-.6-.3.2.8h-.5l-.2.5-1 1h-.9v.5l.2.3.2.2-.9.7-.4-.2-.9.7.5.4v.1l.2.1.5 1.4L44 213l1.2 1 1.6.5.3-.5-.6-.5-.2-.2-.1-.5.4-.5.3-1.1-.7.4-.1-.2-.4-.6.2-.6.7-.3.7.7h.9l.1.2.9 1.5-.4 2.3 1.2.8v.1l.2.2v.8l.1.2h.8l.3-.5v-.7l.6-1.2 1.3-.9 1.4.2v.2h.2v.7l1.5-.5 1.2-.6h1.3l-.1.2h.3l-1 1.8.3.7h.7l-.2.3h.4l-1 .9.4.6.1.3-1.1.4.2.2.2.2-1 .9-.9-.1-.2.5-1.2.5-.7.8-2.5 1.2.2.5 1.5.6v.2h.2l-.4 1.5-1.2.5-1.6 3 .7.9-.5 2-.8-.1-.4.4.5.9 2 .8.6-.2 1.3.7.2.2-.2.6.7.3v.1l.7.5H55l.2.3h-.1l-.9-.3-.3.6.2.2-.4.8.1.4 1.2.4 2.4 2.2.2.2v1.8l2.8 1.5 1.8-1.9h.8l.1.2h.1l1 2 1.6 1.3h1.7l.1.3.3.5.2.2-.5.2-.4.7.3.4.2.2-.4.9-.6-.5-.4.6 1.5 2-.5 1.4 1.5 1.7.2.2.2 1 .8 1.6-1 1h-.6v-.3h-.2l.2-.6-.4-.2-.3.6H67v1l-.2.5-1.1.5-.8 1.5-1.1.5-2.7 2.8-1.8.7-.8 2.9h-.5l.1 1.7-1.2 1.8h-.6l-.5 1-.5.3-1 2.8-1.4 1.8v.1l-2.6 3.9-1.1.6-1.1.2-.9 1.4-.4 2.6-.6.1-.8 2.1.4 2.8-1 1.4.6 2-.4 1 .1 1-.4 1.2.6.3.2.2.8.6.2.2-.1 1.7-1 1-1.7.5-.1 1.8-.7.4.3 1.4-.5 1.4v1h-.5l-.2.7.3.2.2.2.1.8 1 .2v.2h.2l-.9 1.4-.2-.2-1-1.3-.3 1 .4 1.2h-.3l-.1-.1h-.1l-.4-.7-.4.4.3.7-.7.2-1.5 1.4h-.5l-.8 1 1.1.1.1.2h.1l.5.8-.7.3v.2l1.6.2.1.2 1.5 2.3v.6l-1.4.1-.3.8-3 .5-.3 2.3-.6.5-.2 1.7-.7.6-1.5.5-.5.7.5 1-.5 1.5.8 1.4 1 .1.8-.3-.2.4.4-.2-.5 1 .3 1v2l.4-1h.1l.2-1 1.9-2.2.7.2v.1h.2l.2.5 1 .4.3-1.2 2 1 .1.2h.2l1.1 2.7-.2.6.4.8 3.2.5 3.3-.2 1-.7 2 .3 1.1 1 .2.3-.1 1.7.5 1h.7l.8.7.2.2-.6.3v1l.8.8.2.2 1.3 2.6-.2.3.2.5h.6v-1.2l.1.1.4.4.3-.3v.3h.2l.2 1 1 .4.1.1.1.5h1l.6-1V348.6l.3.8h.5l.6-.4 1 .4v.1h.1l.2.7.9.5.2.2-1 1.2H67.7v.2h.2l.4 1.5.9-.2.3.3"
        stroke="#5B5B5B"
        stroke-width="2"
      />
      <path
        d="m194.6 106.4-.4.4-.2.4-1.7 4.1-1 1.3-.1.2v.7l-.2.3-1.5 2h-.8l-.2.5-.3-.1-.1-.1v-.2l-.2-1.3-.4-.4h-.2l-.3.2-.1.3-.1.8v.8l-.1.8-.2.4-1.3 1.5-.4.2-.9.2-.4-.3-.1-.3-.8-.3h-.3l-.8.8-.1.2v.4l.3.9.4.9.2.4.1.6v.6l-.4.3-2.4.2h-.3v.2l-.1.5.1.6.4 1V128.7l-.8.5-.1.2v.2l.2.5.5.6.5.3.8.2.5.4v.5l-.3 1.2-.4.7-.1.6-.3.4-1.6 1v.2l-.1.4.1.7.6.6.8 1.3.2.5v.2l.1.2.2.4v1l-.3.3-.5.2-.9-.1-.9.2-.4.4-.7.8-.4.4v.2l.4-.1.1.2-.5 1.8h.2v.3l.2.7-.3.5.6.4-.2.3-2.2.3-1.5 1-.1 1h.1v.3l1.2.8 1-1.6 1.1.5h.1v.3l1.5-.4.5 1.1.2 2.8h.1v.3l2.3.4 2-.1.2-.3h.2l.1 1h.1v.2h1.6l-.5.8v1.7h.7l.1 1.7-1.7 1 .2.7.1.3 1.3.5-.1 1h.1v.3l1 .7.6-.6v2.7l.1.1v.1l.9 1 .3 1.5.1.2.6 1 .7-.1.7-.7h.9l.1 1.3.1.3 1.3-.6.6-1.4-.2-.3-.5-1-1-.2-.3-.9 1.3-3 .8-.3.2-.6-.2-.2-.4-.9-1.3-1.6-1 .7v1.4l-1-.5-.6-1v-.6l-.1-.2-.6-.7 1-2h1l3 1.5v1.2h.1v.2l1.9-1 .5-2.5h.7l.6.9v.8h.1v.3l1.7-.2.5.5 2-.2.5.6h1l-.2-.3-.2-.3 1-.4h1.2l.5-1.5 1.4-.3 1.7-3.8h-.2l.1-.3-.7-.3.2-1 .5-.4.7.4.4-.3-.5-1.9h1.2l1.4 1 .6.3 3.6 2.3-.1 1.5h-1.1l-2.8 4.6.2 2.3h.6l1 1.6 1.6.5 2.2-.7 1-1.3 3.5-2 1.1-.1 1-1.2 2.3.4v.2l.2.5.1.2 1.1.4v-.2l.6-.2.6-.6.4-.5.4-.4.8-.4 1-.7.4-.4 1.5-1.7.7-1.6.3-.6 1-1 .4-.6.3-.7.1-.8v-1l-.3-.8-.8-1.2-1-.7-1.9-1-.4-.4-.4-.5-.4-1.7-.5-1-.7-1.7V138.1l.2-.3.2-.2h.7l.7.3.4.4 1.5.5.5-.1.5-.3.8-.8.2-.3 1.2-1.5 2.5-2.3.5-.9.1-1.4.2-.7.3-.6 1-.7H242.4l.9-.3.4-.4.4-.5.8-2 .7-2.5v-.6"
        stroke="#5B5B5B"
        stroke-width="2"
      />
      <path
        d="m228 159.2-.1.2-.5 1 .3 1.9-1 1.3-3.6 5.3-2.3 1.6v1l.2.1v.2l.9 1-.2.8-1.1.5-2.7-.8h-1l-.8.8.1 1.2v1.5l-.2 1 .1.2 1.6 2.3-.1 1-.8.1-.8-.9-.2-.7v-.3l-.7-.5-.4 1.8v2.2l.5 1.4.1.2 1.4 2.4-.3 1-.6.6H214l-1.1.7-.3 1v.1l.1.2.2.2 1.4 1.2v.2l.8 2.1v.1l.1.2 1 1.4 1.5 1.8.4 1.2-.3 1.7-.2-.1-.1-.6-.1-.2-.8-.2-.3.6.2 2 .1.1v.1l.6.7-.3 1.8.4 2-.3.7-.5.6-1 6.5.7 2.5h.1v.1l.8 1.7.5 2.3-.5 3.9.1 2.4.1.2.5 1 1 1.5 1 1.7.4-.3h.1l.8-.7.3.1.8 1.2h.5l.6-.1.4-.3h.2l.7.2 1 .3h.3l.6.1 1 .2h2.7l3.2-.6.6-.6 1.2-.5 1.3-.1h1.6l.5-.2 1.4-.2.4.3.9.5.8-.8.9-.6.4-.2H244l.9-.7h.2l.5.3.3 1.2.5.4 1.3.3.8.2.8.5.6 1.1h.5l1-.6h1.6l2.6-1.2.5.1.2.8.6.5.2.8.4.6.7.3.2.1 1.3.5.7-1 .4.1.3.3.6.3 1.2-.2v.9l.7.5.6.5h1.8l.4-.1h.4l.7-.3.8-1.3.4-.3 2.3-.4.8.4.9.6 1 .2 1.4-.4 1.2-.6.4-.2.2-.2.4-.6 1.4-1.3h.7l.9-1 .6-.2.4-.4v-.4l-.6-.7-.2-.5.5-.3 1.3.2v-.8l.2-.3h.3l2 1 1 .5.3-.2v-.3l-.4-.4.1-.1.4-.5v-.8l.3.2.7.2 3.3 2.2 1 .6v.2l1.1.7H293.5l1.6-1.5.6-.4.6-1.2.6-.4.4-1.3.3-.3.5-.4.3-.4.1-.3.1-.4v-.6l-.2-.3v-.8l-.1-.2-.3-.2 1 .5-.6-.4-.3-.8-.4-1.6-.1-.4v-.7l.4-.3.1-.2-.2-1-.7-.9v-.2l.5-1.8-.4-.8-.9-1.1-.3-.6v-1.3l.2-.1.4-.1.3-.3.1-.2-.3-1.4v-.3l.2-.5.5-.4h.6l.5.5h.3l1-.5h1.1l2.3.6 1.9.3"
        stroke="#5B5B5B"
        stroke-width="2"
      />
      <path
        d="m296.6 235.3-.5-.7-.1-.2-4.6-1.2-.3-.7.2-.6v-1.2l.2-.7v-.2l-1-.6-3.3-2.2-.7-.2-.4-.2v.8l-.3.5.3.5v.3l-.3.2-1-.5-2-1h-.3l-.2.3v.8l-1.3-.2-.5.3.2.5.6.7v.4l-.4.4-.6.2-.9 1h-.7l-1.4 1.3-.4.6-.2.2-.4.2-1.2.6-1.4.4-1-.2-.9-.6-.8-.4-2.3.4-.4.3-.8 1.3-.7.4-.4-.1h-.4l-1 .2-.8-.1-.6-.5-.8-.5.1-.9-1.2.2-.6-.3-.3-.3h-.4l-.7.9-1.3-.5h-.2l-.7-.4-.4-.7-.2-.7-.6-.5-.2-.8-.4-.1-2.7 1.2h-1.6l-1 .7h-.5l-.6-1.2-.8-.5-.8-.2-1.3-.3-.5-.4-.3-1.2-.5-.3h-.2l-1 .7h-.5l-.4.2-1 .6-.7.8-.9-.6-.4-.2-1.4.2-.5.2h-1.6l-1.3.1-1.2.5-.6.6-3.2.5h-.6l-2 .1-1.1-.2h-.6l-.3-.1-1-.3-.7-.2h-.2l-.4.3-.6.2-.5-.1-.8-1.2h-.3l-.8.5-.1.1-.3.3.3.5 2.5 1.9.5 2.9 1 3.2.8 4.2v5.1l-.2 2.4.8 2.7.1.2 1 1.4 1.7.2.8.6-.3 2.4.1.2.8 1.1 2.2.4.5.7-.2 1.7-.7 1.5.3 1.2v.2l2 4.7 1.2 3 .1.3 2 2.2 1 .8v3.2l1 3.4-.3 1.6-1.3 2.3-.4 2.3-1 1.8.3 2.1v.2l1.7 1.9-1 3.5.4 7-.3 1.6-.7 2-2.2 3.8-.2 1 .4 1 .1.2 2 1.7.5 1.2-.6 2.2-.1 3v.1l-.2 4v.1l1.2 1.8.3 3.3 1.2 3.3-.1.9-.6 1.4.4 1.1v.2l.6.6.2.5-.3.7-.1.2v.1l-.7 1.4.3 2-1.4 3.2-.3 2.4-4.3 2.8-1.7 2.1-.2 1.1.5 2.3 1 2.4v1.2l-1.2 2.5.3 1.2v.1l1 1v1.5l-1.5 2.2-.3 1.6.4 2.1v4.9l-.5 1-2.1 2.7v.2l-.5.9-.1 1.4.8 1.5v.2l.8 1.2-.1.7-1 1.2-.5 1.8-1 1-1.5.8-2.2.8-1.3 1.9-1.7.7-.4 1v.8l.6.1.3-.3.4.2h.3l.4.2.1.3.3.9v.1l.2.5.3 1.6.3.6.2.4.8 2-.3 1.9-1.3.7-.4.8v.1l.1.7.3 1.2.7 1 .6.3h.4l.3-.3 2.6-.7.8.2.5 2h-.9l-.8-.2-.8.3-.1.7.2.4h.4l.3.8.7 2.2.2.2.3 3.2"
        stroke="#5B5B5B"
        stroke-width="3"
      />
      <path
        d="m219.4 401.2 3.4-1.3 5-4.5 1.7-2.4 1.5-4.8 2.4-4.4 6.1 1.2.5.1-1.5-28.2v.2l.4-1.5-.7-1 .6-2 4.3-15.2-.7-5.4-1.2-4.2-.3-3.8-1.5-9.5 1.5-20.4 2-6.2-.3-.8-1.1-1.1v-1.5l.8-2.7 4.3-4 2.4-1.4 2.3-2.3 2.6-2.1 2.3-.8 5.4 1.7 1.6 1.3 5.5 1.7 3.3-1.2 1.6 1.3 1.9 2 1.1 1.2.7 1"
        stroke="#0878AB"
        stroke-width="1.6"
        stroke-linejoin="bevel"
      />
      <path
        d="m165.2 329.9-.8-4-1.3-.4-.7-1 .2-2.2.6-.5.3-.7-1.6-1.2-1.4-2v-1.5l.4-1.3-.5-3.2.2-.7 2.3-.8-.3-.8.9-1.2.7-.5.2-.7.9-1.2-.3-.9 1.6-1.7-.3-2.3 4-1.8 1-2.7-.5-1.6v-3l-2.8-2.4-2-1.4-.6-1.6.7-.6h2l.7-.6.9-1.2.4-1.4-1.8-2-.7-1-4.8-2.3-.9-.3-3.4-.3-1.6-1.3-1.5.3-2.1-3-1.4-.4-1.8-2-1.8-.6-3-3.2-1.8-2.1-.7-1-2-1.4-2.4-3.7-.4-.1-1.4 1-.9-.3-1.2-2.6-3.1-1 .4-1.3-1.1-1.2.4-1.3.9-1.2-1.2-1.1-.9-1.8-3.7-2.7-1.8-3.6.2-3.7-2.1-2.9-.2-.8.2-.7.6-.5 3.7 1.1 6.5-1.6 1.1-.4 2.9-2.9 2.5-1.4.6-.6.2-2.1.7-.6-1.4-3.4v-1.5l-1-1.8.5-1.4 1.8-.9.2-.7 2.3.7.6-.5.5-1.4-1.9-2-.2-.9.4.2.7-.6 1.4.5 1.6 1.2 1-.4-.2-2.3-.7-1 1.4-2.5v.2h.4l-.2.6.7 1 1.3-1.1 1.4.4v-1.5l.2-.7.6-.5 1.1-1.9-1 .4-.5-.1.2-2.2.2-.7 1.6-.3.2-.6-1.2-1.2-.2-.8h2l1-1.3-.8-1-2-1.4-.3-.8.9-4.2.4-1.4-.2-.8.8-2.7 2.3-2.3 2.2.7.7-.5.6-2 1.6-1.8v-1.5l1.5-.3.3-.7-1.2-1 .7-.6-.2.7 3.6-1.9.8-1.2.5-1.4.9-1.2 1-.4.8 1 1.8.6-1.6-2.8.2-.7 1.3-1 1.8.5.7-.5.4-1.4.5.2 1.1 1.1 1.2-.4.4-1.4-.2-.8.4-.6.4-.6 1.8-1 1.9 1.9 1.3.5-.1 1.1 1.5 1.2.3-.3-.1 2.2 1 1.2.4 1.5.8 1.4 1.1-.3.6-.6h.4l.1 1.4 3.4 1.1 1.1-.4.5-1.3 1.1-.4 2.3.7 2.5 1.5 1.8.6 2.7-2.1 1.5-.3 3-2.8 1.3.4-.4 1.4.4.1 1.4-1 3.3.3 7.7-1.5M242.6 112.6l1.2 1.1h2l1 .2.6 1 3 .2 1 1"
        stroke="#0878AB"
        stroke-width="1.6"
      />
      <path
        d="m284.4 125.9-1.8 2.4-1 .4-2.4-.7-3.8-2-2.3-2.2-1-1.8-.4-.2-4.3-2-2.3-2.3-4.6-3-1.3-.4h-2.5l-4 1.7h-.1l-4 1.7-1.4 1-.6.6-1.2.4-1.1 5.3v-.1.6l.1.6v.6l-.1.5-.5 1-.2.4-.9.7-1 .3h-.6l-.9.6-.2.4-.2.6-.1 1.4-.6 1.2-2.4 2.1-1.2 1.6-.2.3-1 1-.6.3-.8.2-1.7-.6-.5-.5-.4-.2h-.3l-.2.2v.8l.7 1.4.5 1 .4 1.8.3.3.4.3 1.7 1 1.2.7 1 1.5.2 1.2v.9l-.1.9-.3.6-.4.7-1 1-.3.6-.8 1.7-1.6 1.8-.4.4-1 .7-.8.4-.3.3-.4.5-.5.5-.5.3v-.2l-.6 1.2.3 2-1.1 1.5-3.7 5.3-2.1 1.5v.5l1.1 1-.3 1.7-1.4.6-2.8-.8h-.9l-.4.5.1.8v1.8l-.2 1-1 1.3-.3 1.6v2.1l.5 1.2 1.6 2.7-.5 1.5-.8.8h-1.9l-.8.6-.2.4v.1l.3.4 1.3 1 .9 2.4.8 1.4 1.6 1.9.6 1.6-.3 2.3-.6 1.8-.4 1.8.5 2-.5 1.2-.4.4-.9 6.2.7 2.3c0 .2.6 1 .8 1.8l.6 2.4-.5 4 .1 2.3.4.9 1.1 1.8.5.9.7.8 2.9 2 .6 3.4.9 3 .8 4.3.2 5.3-.4 2.3.8 2.3.8 1.1 1.5.2 1.4 1.1-.3 2.7.5.7 2.1.3 1 1.2-.3 2.2-.6 1.4.3 1 3.1 7.7 1.8 2 1.4 1.1-.1 3.6 1 3.5-.2 1.9-1.3 2.3-.5 2.3-.9 1.6.2 1.7 1.9 2.1-1 3.9.3 6.8-.3 2-.8 2-2.2 3.8-.1.7.2.6 2.2 1.8.6 1.7-.6 2.4-.1 3-.2 3.7 1.1 1.9.4 3.4 1.2 3.3-.1 1.1-.6 1.3.3.9.7 1 .2.5-.3.8v.1l-.8 1.5.3 2.2-1.4 3.2-.4 2.7-4.5 2.9-1.4 1.9-.2.7.4 2.2 1 2.4v1.5l-1 2.4.1.9 1 1v2l-1.5 2.3-.2 1.4.4 2v5l-.5 1.3-2.1 2.5-.1.2-.5.9v1l1 1.8.6 1.2-.2 1.2-1 1.1-.5 2-1.3 1.1-1.9 1-1.7.6-1.3 2-1.6.5-.2.6-.4 1.4-1.2.1h.3l-1 2.9-.6.5-2.3-.7-1.4.4h.3-1l-.8 1h-1.9l-1.1-.5-1.3-1.5-2.7-1.3-.4-.6-2.4-1.8-.1-1.1-.7-.9v-1.4l.1-.5-.5.4-1.7-.5-.7-1-1.6-.4-.6.1-.8.6-.3.5v1l-1 1.5-1.3.2-1-.4-1 .1-.8-.9v-1l-1.3-.1-1.6-.7-1.3.2-2.2-1.1-1-1.5-.2-.1-1 .4-1.7-.7-.4-1.6.4-1-.3-.5-2.1-.6.2-1-.5-.5h-.7l-.7-.6-.2-.8-.8-.7-.4-1.8-.2-.2h-.5l-.4.6-.7 1-1-.6-.4-1-.8-.4-.5.5-1.5-.9-.7.2-.3 1.5-1 .6-1 .3-1.7 1-3-.8h-2.1l-.2-1.6h-.3l-2.7.5-1.9-1.5-1-.5-.5-.9h.3l-1.4-.4-2.9-.2-1.6 1.7-.4-.1-.5-1.7.2-.6-.4-1.7-1-1.8-.5-1.8v-1.3l.8-1 .4-.4-1.8-.9v-2.5l1.9-.8-.2-.8.4-1.4-.2-.8-1.9.8-1.4-.5-1-1-.1-.5-.6.1-.4.4-1.8-.9-2.3-.6-2.7.9-1.4-.4h-5.3"
        stroke="#0878AA"
        stroke-width="3"
        stroke-miterlimit="3.9"
      />
      <path
        fill="#E0BDAD"
        d="M75 140h248v165H75z"
        style="mix-blend-mode: hue"
      />
    </g>
  </g>
  <path
    d="m167.7 141.1 61.4 37.8m-19.4 115.4 63.8-14.1c2-.5 3.7-1.3 5-2.6a7.8 7.8 0 0 0 2.4-4.3l16-95.6c.3-1.5.1-3-.6-4.6-.7-1.4-1.8-2.8-3.3-3.8a13.4 13.4 0 0 0-10.6-2.2l-53.3 11.8-19.4 115.4Zm0 0-61.4-37.8 61.4 37.8Zm0 0L229 178.9l-19.4 115.4Zm-61.4-37.8L95 268.3a13.4 13.4 0 0 1-10.6-2.2c-1.5-1-2.6-2.4-3.3-3.9-.7-1.5-1-3-.7-4.5L96.5 162a7.8 7.8 0 0 1 2.4-4.4c1.3-1.2 3-2 5-2.5l63.8-14-19.4 115.3Zm0 0 19.4-115.4-19.4 115.4Z"
    stroke="#694C3E"
    stroke-width="2"
    stroke-linecap="round"
    stroke-linejoin="round"
  />
  <defs>
    <clipPath id="a">
      <path
        fill="#fff"
        transform="scale(-1 1) rotate(-17.6 313.3 1117.2)"
        d="M0 0h251.7v275.8H0z"
      />
    </clipPath>
  </defs>
</svg>
