<svg
  width="1440"
  height="375"
  viewBox="0 0 1440 375"
  fill="none"
  xmlns="http://www.w3.org/2000/svg"
>
  <path
    d="M1135.4 199c-4.3 35.6 4 58 21.5 97H970s20-53.6 22.6-89.5c1.3-19.5-2.2-28.7-5.5-43-6.5-27.5-7.6-58-6-72 1.4-14 3.3-38.3 19-54.5 6.4-6.7 10.7-10 19-14 13.2-6.3 37.1-5.5 37.1-5.5s26.9-3.3 43.6 0c26.1 5.2 45.4 10.5 59.6 33 11 17.4 14.4 32 9.5 52-6.7 27.4-11 41.4-21 61a84.4 84.4 0 0 0-12.5 35.5Z"
    fill="#9B806B"
  />
  <path
    d="M1146.8 103.4c5.6-16.1-7.4-51.3-16.3-58-9-6.8-29.3-4.8-36.6-3-9 2.4-6.2 3.4-19.2 3-13-.5-39.5-13.8-50-6a68.8 68.8 0 0 0-24.2 39.5c-1.3 9.5.4 25.1 5.8 33 21.4 31.6 41 33.7 57.9 36 7 .9 11 1.4 18 1 17.9-1 26.9-2.2 40.8-13.4a68.6 68.6 0 0 0 23.8-32.1Z"
    fill="#E0BDAD"
  />
  <path
    d="M1099.3 126.5c-8.4 4-29.6 6.4-45.1 4.5"
    stroke="#1B1B1A"
    stroke-width="3"
    stroke-linecap="round"
  />
  <path
    d="M1038.7 94c-15 7.5-20.4 7.3-32 10.8-4.4 1.4-10.6 1.1-13.5-2.5a9.2 9.2 0 0 1-2-4.5c-.8-3.7 2-9.5 2-9.5s17.6-22 33.6-24c4.3-.5 5.8-.4 10 .5h.1c6 1.5 11.4 2.7 13.4 8.5 1.1 3.2 1.9 4.8 1 8-1.4 5.5-7.5 10.2-12.6 12.7ZM1105.1 94c15 6.5 20.3 5.8 31.6 8.7 4.4 1 10.4.6 13.1-2.8a8.4 8.4 0 0 0 1.9-4.3c.6-3.5-2.3-8.8-2.3-8.8s-17.9-19.8-33.5-21.2c-4.2-.4-6.7-.7-10.8.4-5.9 1.5-11 2.8-12.9 8.3-1 3-.6 5 .3 8 1.6 5 7.6 9.5 12.6 11.7Z"
    fill="#4D4D4C"
  />
  <ellipse cx="1036.2" cy="83" rx="11" ry="9" fill="#1B1B1A" />
  <ellipse
    rx="11"
    ry="9.2"
    transform="rotate(-16.4 844.9 -3795.2) skewX(.1)"
    fill="#1B1B1A"
  />
  <circle cx="1030.7" cy="80.5" fill="#fff" r="1.5" />
  <circle cx="1103.8" cy="81.5" fill="#fff" r="1.5" />
  <path
    d="M1090.3 86c5.8 3.6 5.4 12.8 5 18-.4 5.1-6.8 15-17.3 15.5-10.6.5-8.6 0-15.6-2a53.1 53.1 0 0 1-10.5-6.5c-4-3-5-7-4.5-12.5.9-9.5 9-13.9 13-13.9h9.6c4.3 0 7.5-2.4 11-2.1 3.6.3 3.5-.2 9.3 3.4Z"
    fill="#1B1B1A"
  />
  <path
    d="M1059 101.7c-1 .8-.7 2.3-1.5 3-1 1-3.2.6-4-.5-1.3-1.8-.3-4.6 2.4-6.6 2.7-2 6-2.2 7.2-.4.7.9 0 3.1-1 4-1.3 1-2-.2-3 .5Z"
    fill="#686867"
  />
  <path
    d="M1081.8 17a22 22 0 0 1 2.5-14m-7.6 15c-4.3-2.9-7.2-6.9-9.5-15m-16 1.5c3.1 6.4 13 14 20 15.5"
    stroke="#9B806B"
    stroke-width="6"
    stroke-linecap="round"
  />
  <path
    d="M1090.8 227a48 48 0 0 0 4.5 22.5m5 7.5c-.5 4.7.7 8.9 4.5 18m10.5-19.5c1 4.9 2.9 7 8.5 10m-2 2.5c1.7 11.7 4 17.5 9.6 27m-24-69.5a101 101 0 0 1 3 17.5m-5.6 45.5 2.5 9.5m30-17.5a42 42 0 0 0 9.6 17.5m-10.5-33.5 13 19m-31-58c-.7 7.1 0 10.3 2 15.5m11-7.5c.7 8.4 1.7 12.7 5 19.5m-6.6-51.5c-.1 11.7.8 16.6 3 24m-58 32.5c-1.9 3.5-2.4 5.6-2.6 12m9.5 17.5 4 10.5m-13.5-9.5v9.5m-15-28v12m-14.5-14c-1 8-3.9 11.7-10 18m-21-11c-.7 8.2-3.5 12.3-10.1 19m-9.5-31.5-7 21m8.5-42.5-5 14.5m15-28.5a38.2 38.2 0 0 1-7.5 24.5m25.5-13-5 24m19.6-9.5-4.5 11m34-38.5c-.4 13-2 19.9-7 31.5m15-25.5v7m-23-13c1 9.9-1.2 14-5.5 21m-5.5-27c-1 5.4-2.2 8-5.5 12m-7-21c-3.2 9.2-5.7 11.8-10.6 15m-5-19.5v13.5m-10.5-12.5-3.5 14m15.5-34.5c-2.6 8.6-5.4 12-11.5 17m30-18.5c-.4 7.6-1.7 11-5.5 16m22-12c-.5 12.4-3.3 16-9.4 20.5m27-14a25 25 0 0 1-4 17.5m21-22.5 2 21m14.6-3c-2.1 4.8-2.4 8 0 14.5m12.5-34-1.5 18m-8.5-20.5-1.5 11m41.6-34.5a65.6 65.6 0 0 0-6.5 26m-8-32a107 107 0 0 0-3.6 20.5m-5.5-26c-3.3 6.2-3.6 10.4-3 18.5m-13.5-13-2.5 22m-13.5-17.5V176m-17.6-13v16m-17.5-29c-1 7-1.2 10.1-1 14m-15.5-2.5v16m-34.6-10c2.1 5.7 2.4 10 1.5 16.5m10.5-40c5.4 11.4 5.8 18.9 3.5 33.5m9-18a21 21 0 0 0 10-12m-33.5-4.5c5.3-1.4 8-3.1 12.5-6.5m-24.5-10c.5 8 1.3 12.6 3.5 19m145.3-14c-2 7-2.4 11.1-2 18.5m18.5-21.5c.6 8-.8 13.3-4.5 23m10.5-36c.2 3.3-.7 4.8-3 7m4-55c2.5 6.3 2.5 11 1.5 20.5m-15-47.5c5.6 5 8 8.4 11 16m-21-11.5c12.2 10.3 14.2 15.7 14.5 25m-163.3 5.5-1 8M1003 42l-6.5 15.5m23-29.5c-6 4-8 6.5-9.5 11m45.1-8-2.5 8m27-3.5 1 5.5m19.6-15.5c7.6 5.3 11 8.2 15 13.5m-8-15.5a43 43 0 0 1 21 10m-42.5-15c.5 3.6.2 6.5-1 12.5m-12-10.5c-5 3.5-6.4 6.5-7 13m-4-13-4.6 5m-4.5-2c-7.1.8-10.7 2.6-16.5 7.5m42.5-29c.3 4.4-.2 7-1.5 12m-4.5-1.5c-3-.6-4.5-2-7-6m0 7.5c-4.3.7-6.6-1.4-10.5-6.5"
    stroke="#684C3D"
    stroke-width="3"
    stroke-linecap="round"
  />
  <path
    d="M0 280.5s845.3-102.5 668.4-59c-52.7 13-99.9 37.5-45.6 37.5h285l75.7-5m151.9-24.5c-72 7.6-143.8 6-145.8 4.5s-1-1.5-1-1.5m146.8-20c-34.7 1.7-140.8-8-141.8-8s-.5-1-.5-1m142.3 1.5c-73 3.7-100.4 4.8-141.8 7.5M1085.8 16c-11 1.4-26.6 1-28.1 1s0 8 0 8"
    stroke="#0F0F0F"
    stroke-width="5"
    stroke-linecap="round"
  />
  <path
    d="M1101.3 287.5v8.5m45-14 12.6 11m-44.6-22.5 6.5 19.5m6-33c1.3 6.3 2.6 9 6 12m6-15.5 10.6 7.5m-41.6-12.5 5 14.5m-21-6c-.1 8.2 1.5 12.7 7 21m-27-2.5c-.4 6.2-1.5 8.7-4.6 12m-38-18.5c-1.4 5-3 7.8-7 13m-16.1-7.5a36.8 36.8 0 0 1-12.5 18.5m-11.6-5.5-11 8.5m17-32-10 14m8-20c-3.6 5.1-6 6.3-10.5 6m37.6-21.5c-1.5 11.8-4.3 15.6-10.5 20.5m44-35.5c-3.1 7-6 9.7-12 13.5m25.1-12c1 0-2.7 13.2-9 19.5m33.6-26v22m18-18 3 14.5m9-24v19m14.5-15.5 2 26m4-28 6.6 7m-18-37 2.4 27.5m-16-32-2 16m-16-11.5c-2.2 5.5-1.8 8.2 1 12.5m-14.5-9v16m-21.1-16a34.1 34.1 0 0 1-6.5 20.5m-16 4.5c-4.3 9.3-6.4 11.4-10 14.5m-16.1-23.5c-1 9-2.8 12.3-6 17.5M995 229l-3.5 9.5m49.6-52c-.7 9.6-3 13.6-10 19m-5-20.5-7.6 15m-16-10c-2.5 5.3-4.3 7.6-9 10m4.5-15c-3 6.9-5.4 8.7-10 11m2-46.5c-1 5.4-2.2 7.3-5.5 9.5m10.5-9.5a23.8 23.8 0 0 1 0 18.5m17-10c3.3 6.6 2.4 9.6-1.5 14.5m11.5-25.5c.7 9.4.2 14.8-2 24m23.6-14v14m18.5-12-4 14m20-15-1 24.5m18.6-26.5-1.5 10.5m16-18-.5 18m21 0V190m15.6-38 4.5 14.5m-22-30.5v11m17.5-24a25.2 25.2 0 0 0-2 15m-9 57 2.5 4m-101.2 94-2 3m17-2-1 2m-48.1-158 6-7m-10.5-3 3 18m-14.5-57c-3.6 4.2-5.6 6-9.6 7m16-38v15m11.6-35c-4.5 4.6-7.3 6.6-13.5 7.5m47.6-24.5c-7.2 2.2-9.4 5.1-11 12.5m17-8.5-3.5 5.5m41-13c-4.5 3.7-5 6.5-4.5 12m16.6-12 5 14.5m8.5-4.5 14.5 5.5m11 15c7 3.8 8.5 6 9.6 10m3.5-15 11.5 13m-20-25.5 13 1.5m-40.6-14.5c5.1.1 7.5-.9 11-4m-22 2c-2.5-.8-3-2.1-3.5-5M1029 19c-5 .7-7.7.4-11.5-3.5m30.6 0c-6 1-8.9.4-13-3.5m23 1.5c-6.8-.3-10-2.1-14.5-7.5m122.7 56.5c2.3 3.8 4.1 4.2 7.5 4.5m-4.5 10.5c3.6 2.4 5 4 6.5 7.5m-8.5 13c1.6 6.7 2.8 8.6 5 9.5"
    stroke="#B39788"
    stroke-width="2"
    stroke-linecap="round"
  />
  <path
    d="M1086.3 133c.3 2.5-1.6 5.8-4 6.1-2.5.3-4.6-2.6-4.8-5-.3-2.6 1.3-2.3 3.8-2.5 2.4-.3 4.8-1 5 1.4ZM1076.2 134c0 2.5-2.1 5.7-4.6 5.7-2.4.1-4.3-3-4.3-5.5 0-2.4 1.5-2 4-2 2.4-.1 4.8-.6 4.9 1.8Z"
    fill="#fff"
  />
  <ellipse cx="1239.1" cy="366.5" rx="28.6" ry="2.5" fill="#EAEAEA" />
  <path
    d="M1440 339s-147 24.2-167.4 19.4c-8.5-2-16 0-16 0"
    stroke="#0F0F0F"
    stroke-width="5"
    stroke-linecap="round"
  />
  <path
    d="M1249.9 350.9c-2.1 8.4-7.8 12.2-14.4 13.6a40 40 0 0 1-17.1-.7l12.2-41.7a37 37 0 0 1 14 8.9 20.3 20.3 0 0 1 5.3 19.9Z"
    fill="url(#a)"
    stroke="#0F0F0F"
    stroke-width="4"
  />
  <path
    fill-rule="evenodd"
    clip-rule="evenodd"
    d="m1245.3 360.5 2.9 1.2a5 5 0 0 0 6.6-3.2l.6-2a5 5 0 0 0-3.4-6.2l-1.4-.4c0 .4-.2.7-.3 1.1a20 20 0 0 1-5 9.5Z"
    fill="#fff"
  />
  <path
    d="m1248.2 361.7.7-1.9-.7 1.9Zm-3-1.2-1.4-1.4-2 2.1 2.7 1.2.8-1.9Zm9.6-2 2 .5-2-.5Zm.6-2 2 .6-2-.6Zm-3.4-6.2-.6 2 .6-2Zm-1.4-.4.6-2-2.1-.6-.5 2.2 2 .4Zm-.3 1.1-2-.4 2 .4Zm-1.4 8.8-2.9-1.2-1.5 3.8 3 1.1 1.4-3.7Zm4-2a3 3 0 0 1-4 2l-1.4 3.7a7 7 0 0 0 9.2-4.5l-3.8-1.1Zm.6-1.8-.6 1.9 3.8 1.1.6-1.9-3.8-1.1Zm-2-3.8a3 3 0 0 1 2 3.8l3.8 1.1a7 7 0 0 0-4.7-8.7l-1.2 3.8Zm-1.5-.4 1.4.4 1.2-3.8-1.4-.4-1.2 3.8Zm-1.4-2.3-.2 1 3.9 1 .3-1.2-4-.8Zm-.2 1a18 18 0 0 1-4.6 8.6l2.9 2.8c2.5-2.6 4.5-6 5.6-10.4l-4-1Z"
    fill="#0F0F0F"
  />
  <path
    d="M1228.4 344.1a51 51 0 0 1-6.8 14.9c-1.3 1.7-2.5 3-3.5 3.6-1 .7-1.7.7-2 .6-.3 0-.8-.4-1.3-1.6-.5-1.1-.8-2.8-1-5a51 51 0 0 1 2.4-16.1 50.7 50.7 0 0 1 6.8-15c1.3-1.7 2.5-2.9 3.5-3.6 1-.7 1.7-.7 2-.6.3.1.8.5 1.3 1.6a15 15 0 0 1 1 5 51 51 0 0 1-2.4 16.2Z"
    fill="#fff"
    stroke="#0F0F0F"
    stroke-width="4"
  />
  <ellipse
    rx="1.2"
    ry="4"
    transform="matrix(.94888 .31563 -.31183 .95014 1224.2 338)"
    fill="#0F0F0F"
  />
  <ellipse
    rx="1.2"
    ry="4"
    transform="matrix(.94888 .31563 -.31183 .95014 1224.2 338)"
    fill="#0F0F0F"
  />
  <ellipse
    rx="1.2"
    ry="4"
    transform="matrix(.94888 .31563 -.31183 .95014 1224.2 338)"
    fill="#0F0F0F"
  />
  <ellipse
    rx="1.2"
    ry="4"
    transform="matrix(.94888 .31563 -.31183 .95014 1224.2 338)"
    fill="#0F0F0F"
  />
  <ellipse
    rx="1.2"
    ry="4"
    transform="matrix(.94888 .31563 -.31183 .95014 1220.1 348.2)"
    fill="#0F0F0F"
  />
  <ellipse
    rx="1.2"
    ry="4"
    transform="matrix(.94888 .31563 -.31183 .95014 1220.1 348.2)"
    fill="#0F0F0F"
  />
  <ellipse
    rx="1.2"
    ry="4"
    transform="matrix(.94888 .31563 -.31183 .95014 1220.1 348.2)"
    fill="#0F0F0F"
  />
  <ellipse
    rx="1.2"
    ry="4"
    transform="matrix(.94888 .31563 -.31183 .95014 1220.1 348.2)"
    fill="#0F0F0F"
  />
  <ellipse
    rx="6"
    ry="1.1"
    transform="rotate(-19.1 1689 -3495) skewX(.1)"
    fill="#626262"
  />
  <path
    d="m1055 54.8 5-.2.5 9.5c0 1.3-1 2.5-2.4 2.6-1.4 0-2.5-1-2.6-2.4l-.5-9.5Z"
    fill="#0F0F0F"
  />
  <path
    d="m1055 54.8 5-.2.5 9.5c0 1.3-1 2.5-2.4 2.6-1.4 0-2.5-1-2.6-2.4l-.5-9.5ZM1066 54.3l5-.3.5 9.5c0 1.4-1 2.5-2.4 2.6-1.4 0-2.6-1-2.6-2.4l-.5-9.4Z"
    fill="#0F0F0F"
  />
  <path
    d="m1066 54.3 5-.3.5 9.5c0 1.4-1 2.5-2.4 2.6-1.4 0-2.6-1-2.6-2.4l-.5-9.4Z"
    fill="#0F0F0F"
  />
  <path
    d="m1081.2 51.2-35.9 1.8s-1.5-25.2 14.4-26.5c18.8-1.6 21.5 24.7 21.5 24.7Z"
    fill="#0F0F0F"
    stroke="#0F0F0F"
    stroke-width="5"
    stroke-linecap="round"
  />
  <ellipse
    cx="1052.5"
    cy="32.4"
    rx="1.6"
    ry="4.9"
    transform="rotate(28.3 1052.5 32.4)"
    fill="#686867"
  />
  <defs>
    <radialGradient
      id="a"
      cx="0"
      cy="0"
      r="1"
      gradientUnits="userSpaceOnUse"
      gradientTransform="matrix(-27.9463 39.82708 -29.47661 -20.68348 1243.5 336)"
    >
      <stop stop-color="#0F0F0F" />
      <stop offset="1" stop-color="#2C2C2C" />
    </radialGradient>
  </defs>
</svg>
