<svg
  width="147"
  height="60"
  viewBox="0 0 147 60"
  fill="none"
  xmlns="http://www.w3.org/2000/svg"
>
  <path
    d="M1.407 56.5029C0.580168 56.5542 -0.0484757 57.2662 0.00288573 58.093C0.0542474 58.9198 0.766165 59.5485 1.593 59.4971L1.407 56.5029ZM92.4999 41.8009L92.9688 43.2257L92.4999 41.8009ZM138.754 1.4779C138.299 0.785298 137.37 0.592293 136.677 1.04681L125.39 8.45366C124.698 8.90818 124.505 9.83811 124.959 10.5307C125.414 11.2233 126.344 11.4163 127.036 10.9618L137.069 4.37794L143.653 14.4105C144.107 15.1031 145.037 15.2961 145.73 14.8416C146.422 14.3871 146.615 13.4572 146.161 12.7646L138.754 1.4779ZM1.5 58C1.593 59.4971 1.59334 59.4971 1.59389 59.4971C1.59433 59.497 1.59507 59.497 1.59595 59.4969C1.59772 59.4968 1.60027 59.4967 1.6036 59.4965C1.61025 59.496 1.62003 59.4954 1.63288 59.4946C1.6586 59.493 1.69665 59.4905 1.7468 59.4872C1.8471 59.4807 1.99579 59.4708 2.19093 59.4574C2.5812 59.4305 3.15729 59.3896 3.90369 59.3328C5.39644 59.2194 7.57059 59.043 10.302 58.7907C15.7644 58.286 23.4582 57.4776 32.3898 56.2617C50.2376 53.8322 73.0916 49.7676 92.9688 43.2257L92.0309 40.3761C72.4082 46.8342 49.7622 50.8692 31.9851 53.2892C23.1043 54.4981 15.4543 55.3019 10.0261 55.8034C7.31219 56.0541 5.15433 56.2292 3.67638 56.3415C2.93743 56.3976 2.3685 56.4381 1.98509 56.4644C1.79339 56.4776 1.64807 56.4873 1.55108 56.4936C1.50258 56.4968 1.46616 56.4991 1.44207 56.5007C1.43002 56.5014 1.42106 56.502 1.4152 56.5024C1.41228 56.5026 1.41013 56.5027 1.40876 56.5028C1.40807 56.5028 1.40763 56.5028 1.40729 56.5029C1.40705 56.5029 1.407 56.5029 1.5 58ZM92.9688 43.2257C113.006 36.6314 124.507 26.5776 131.004 18.0874C134.246 13.8498 136.229 10.0179 137.406 7.22727C137.994 5.832 138.38 4.69669 138.622 3.90043C138.743 3.50226 138.827 3.18873 138.883 2.9697C138.91 2.86019 138.931 2.77428 138.945 2.71321C138.952 2.68267 138.957 2.65834 138.961 2.64038C138.963 2.63139 138.965 2.624 138.966 2.61822C138.967 2.61533 138.967 2.61283 138.968 2.61075C138.968 2.60971 138.968 2.60845 138.968 2.60793C138.968 2.60677 138.969 2.60571 137.5 2.30089C136.031 1.99606 136.031 1.99521 136.032 1.99445C136.032 1.99434 136.032 1.99368 136.032 1.99344C136.032 1.99297 136.032 1.9929 136.032 1.99322C136.032 1.99387 136.031 1.99611 136.03 1.99991C136.029 2.00752 136.026 2.0214 136.021 2.0414C136.012 2.0814 135.997 2.14588 135.974 2.23363C135.93 2.40913 135.858 2.67764 135.751 3.02947C135.538 3.73321 135.186 4.76977 134.641 6.06201C133.552 8.64639 131.691 12.252 128.621 16.2644C122.492 24.2742 111.494 33.9705 92.0309 40.3761L92.9688 43.2257Z"
    fill="#71717A"
  />
</svg>
